<svg width="48" height="48" xmlns="http://www.w3.org/2000/svg" xmlns:xlink="http://www.w3.org/1999/xlink"><defs><linearGradient x1="50%" y1="99.275%" x2="50%" y2="0%" id="a"><stop stop-color="#6A79EA" stop-opacity=".05" offset="0%"/><stop stop-color="#6A79EA" stop-opacity=".3" offset="100%"/></linearGradient><path d="M2.451 5.118v-.824c0-.523.12-1.253.49-2C3.577 1.002 4.76.2 6.5.2c1.738 0 2.922.8 3.56 2.093.369.747.489 1.477.489 2v.824h.988C12.343 5.118 13 5.78 13 6.6v6.916c0 .82-.657 1.483-1.463 1.483H1.463C.654 15 0 14.337 0 13.517V6.6c0-.82.654-1.483 1.463-1.483h.988zm6.5 0v-.824c0-.062-.01-.2-.04-.385A3.259 3.259 0 0 0 8.628 3C8.249 2.234 7.605 1.8 6.5 1.8c-1.105 0-1.75.435-2.128 1.201-.14.284-.232.596-.283.909-.03.185-.04.323-.04.385v.824H8.95zm-.826 4.94c0-.91-.727-1.646-1.625-1.646s-1.625.737-1.625 1.647.727 1.647 1.625 1.647 1.625-.737 1.625-1.647z" id="c"/><filter x="-119.2%" y="-98%" width="338.5%" height="309.5%" filterUnits="objectBoundingBox" id="b"><feOffset dy="1" in="SourceAlpha" result="shadowOffsetOuter1"/><feGaussianBlur stdDeviation="5" in="shadowOffsetOuter1" result="shadowBlurOuter1"/><feColorMatrix values="0 0 0 0 0.778507734 0 0 0 0 0.802125079 0 0 0 0 1 0 0 0 0.500254755 0" in="shadowBlurOuter1"/></filter></defs><g fill="none" fill-rule="evenodd"><rect fill="url(#a)" width="48" height="48" rx="4"/><g transform="translate(17 16)" fill-rule="nonzero"><use fill="#000" filter="url(#b)" xlink:href="#c"/><use fill="#B0BAFF" fill-rule="evenodd" xlink:href="#c"/></g></g></svg>