<svg width="48" height="48" xmlns="http://www.w3.org/2000/svg" xmlns:xlink="http://www.w3.org/1999/xlink"><defs><linearGradient x1="50%" y1="99.275%" x2="50%" y2="0%" id="a"><stop stop-color="#6A79EA" stop-opacity=".05" offset="0%"/><stop stop-color="#6A79EA" stop-opacity=".3" offset="100%"/></linearGradient><path d="M5.6 0A5.567 5.567 0 0 0 0 5.6c0 3.119 2.481 5.6 5.6 5.6a5.7 5.7 0 0 0 2.025-.375L8.8 12h1.6v1.6H12v1.6l.55.55c.16.16.334.25.575.25H15.2c.481 0 .8-.319.8-.8v-2.075c0-.24-.09-.416-.25-.575l-4.925-4.925A5.7 5.7 0 0 0 11.2 5.6C11.2 2.481 8.719 0 5.6 0zM4.4 2.4c1.119 0 2 .881 2 2s-.881 2-2 2-2-.881-2-2 .881-2 2-2z" id="c"/><filter x="-96.9%" y="-90.6%" width="293.8%" height="293.8%" filterUnits="objectBoundingBox" id="b"><feOffset dy="1" in="SourceAlpha" result="shadowOffsetOuter1"/><feGaussianBlur stdDeviation="5" in="shadowOffsetOuter1" result="shadowBlurOuter1"/><feColorMatrix values="0 0 0 0 0.778507734 0 0 0 0 0.802125079 0 0 0 0 1 0 0 0 0.500254755 0" in="shadowBlurOuter1"/></filter></defs><g fill="none" fill-rule="evenodd"><rect fill="url(#a)" width="48" height="48" rx="4"/><g transform="translate(16 16)" fill-rule="nonzero"><use fill="#000" filter="url(#b)" xlink:href="#c"/><use fill="#B0BAFF" fill-rule="evenodd" xlink:href="#c"/></g></g></svg>