<svg width="48" height="48" xmlns="http://www.w3.org/2000/svg" xmlns:xlink="http://www.w3.org/1999/xlink"><defs><linearGradient x1="50%" y1="99.275%" x2="50%" y2="0%" id="a"><stop stop-color="#6A79EA" stop-opacity=".05" offset="0%"/><stop stop-color="#6A79EA" stop-opacity=".3" offset="100%"/></linearGradient><path d="M7.186 5.894c-.502-1.559-.257-3.172.801-4.22C8.862.81 10.385.228 11.78.228a4.19 4.19 0 0 1 1.56.279L10.034 3.78l.814 2.367 2.36.839L16.51 3.71c.69 1.778-.046 4.187-1.215 5.345-.679.672-1.592 1.026-2.643 1.026-.488 0-.982-.077-1.464-.226L5.02 15.96a2.8 2.8 0 0 1-1.98.814 2.797 2.797 0 0 1-2.002-.835 2.819 2.819 0 0 1 .02-3.981l6.128-6.063zM3.13 12.303c-.859 0-1.561.699-1.565 1.558a1.568 1.568 0 0 0 1.558 1.573c.867 0 1.57-.699 1.573-1.558a1.568 1.568 0 0 0-1.557-1.573H3.13z" id="c"/><filter x="-93.6%" y="-87.6%" width="287.3%" height="287.4%" filterUnits="objectBoundingBox" id="b"><feOffset dy="1" in="SourceAlpha" result="shadowOffsetOuter1"/><feGaussianBlur stdDeviation="5" in="shadowOffsetOuter1" result="shadowBlurOuter1"/><feColorMatrix values="0 0 0 0 0.778507734 0 0 0 0 0.802125079 0 0 0 0 1 0 0 0 0.500254755 0" in="shadowBlurOuter1"/></filter></defs><g fill="none" fill-rule="evenodd"><rect fill="url(#a)" width="48" height="48" rx="4"/><g transform="translate(16 16)" fill-rule="nonzero"><use fill="#000" filter="url(#b)" xlink:href="#c"/><use fill="#B0BAFF" fill-rule="evenodd" xlink:href="#c"/></g></g></svg>