<svg width="48" height="48" xmlns="http://www.w3.org/2000/svg" xmlns:xlink="http://www.w3.org/1999/xlink"><defs><linearGradient x1="50%" y1="99.275%" x2="50%" y2="0%" id="a"><stop stop-color="#6A79EA" stop-opacity=".05" offset="0%"/><stop stop-color="#6A79EA" stop-opacity=".3" offset="100%"/></linearGradient><path d="M7.006 16l-.139-.065C6.797 15.903 0 12.62 0 2.835v-.259l.25-.055C2.605 2 3.996 1.26 5.01.721 5.801.301 6.37 0 7 0c.63 0 1.2.302 1.989.72 1.015.54 2.406 1.28 4.761 1.801l.25.055v.259c0 9.46-6.787 13.058-6.856 13.095l-.138.07z" id="c"/><filter x="-110.7%" y="-90.6%" width="321.4%" height="293.8%" filterUnits="objectBoundingBox" id="b"><feOffset dy="1" in="SourceAlpha" result="shadowOffsetOuter1"/><feGaussianBlur stdDeviation="5" in="shadowOffsetOuter1" result="shadowBlurOuter1"/><feColorMatrix values="0 0 0 0 0.778507734 0 0 0 0 0.802125079 0 0 0 0 1 0 0 0 0.500254755 0" in="shadowBlurOuter1"/></filter></defs><g fill="none" fill-rule="evenodd"><rect fill="url(#a)" width="48" height="48" rx="4"/><g transform="translate(17 16)" fill-rule="nonzero"><use fill="#000" filter="url(#b)" xlink:href="#c"/><use fill="#B0BAFF" fill-rule="evenodd" xlink:href="#c"/></g></g></svg>