<svg width="52px" height="52px" viewBox="0 0 52 52" version="1.1" xmlns="http://www.w3.org/2000/svg" xmlns:xlink="http://www.w3.org/1999/xlink">
    <!-- Generator: Sketch 49.2 (51160) - http://www.bohemiancoding.com/sketch -->
    <defs>
        <linearGradient x1="1.44424438%" y1="0%" x2="100%" y2="100%" id="tradeswap-icon-5-linearGradient-1">
            <stop stop-color="#17EAD9" offset="0%"></stop>
            <stop stop-color="#6078EA" offset="100%"></stop>
        </linearGradient>
    </defs>
    <g id="Page-1" stroke="none" stroke-width="1" fill="none" fill-rule="evenodd">
        <g id="wireframe" transform="translate(-496.000000, -4482.000000)" fill="url(#tradeswap-icon-5-linearGradient-1)" fill-rule="nonzero">
            <g id="Tradeswap" transform="translate(390.000000, 3837.000000)">
                <g id="Connect-fee" transform="translate(0.000000, 631.000000)">
                    <g id="icon" transform="translate(92.000000, 0.000000)">
                        <g id="011-networking-1" transform="translate(14.000000, 14.000000)">
                            <path d="M47.1757583,42.4496374 C46.1605926,42.4496374 45.2201326,42.7726862 44.4492554,43.3198519 L39.5778791,38.4483743 C46.1081871,31.3865107 46.0897388,20.4895205 39.6037271,13.4409357 L44.4589864,8.58567641 C45.2279376,9.1285848 46.1648499,9.44889669 47.1757583,9.44889669 C48.9732554,9.44889669 50.5913372,8.44964522 51.3984016,6.84088889 C51.5867368,6.46563743 51.4350955,6.00878752 51.0598441,5.82045224 C50.6849981,5.63221832 50.2277427,5.78375828 50.0394074,6.15900975 C49.4919376,7.25040156 48.3945653,7.92822612 47.1757583,7.92822612 C45.4099883,7.92822612 43.9734503,6.49168811 43.9734503,4.72591813 C43.9734503,2.96024951 45.4099883,1.5237115 47.1757583,1.5237115 C48.3945653,1.5237115 49.4918363,2.20163743 50.0394074,3.29282651 C50.22754,3.66807797 50.6844912,3.81961793 51.0598441,3.63138402 C51.4351969,3.4431501 51.5867368,2.98630019 51.3984016,2.61094737 C50.5912359,1.00259649 48.9732554,0.00324366472 47.1757583,0.00324366472 C44.5716023,0.00324366472 42.4528811,2.12176218 42.4528811,4.72601949 C42.4528811,5.77159454 42.7949864,6.73840936 43.3723587,7.52175439 L38.5296686,12.3644444 C35.2617778,9.35290448 30.8497856,7.46833528 26.0118596,7.46833528 C21.3174659,7.46833528 16.863306,9.25954776 13.4940507,12.3644444 L8.5782768,7.44867057 C9.1237193,6.67860429 9.44575439,5.73946199 9.44575439,4.72601949 C9.44575439,2.12186355 7.3271345,0.00314230019 4.72287719,0.00314230019 C2.11861988,0.00324366472 0,2.12196491 0,4.72612086 C0,7.3302768 2.11861988,9.44889669 4.72287719,9.44889669 C5.76581676,9.44889669 6.73040156,9.10841326 7.51273294,8.53367641 L12.4199922,13.4409357 C9.370846,16.7545419 7.55013645,21.1798129 7.55013645,25.9299571 C7.55013645,25.9299571 7.55013645,25.9299571 7.55013645,25.9300585 C7.55013645,30.7021988 9.3868616,35.1404444 12.4458402,38.4483743 L7.52236257,43.3718519 C6.73840936,42.7928577 5.77007407,42.4497388 4.72277583,42.4497388 C2.11861988,42.4497388 0,44.5683587 0,47.1725146 C0,48.9700117 0.999251462,50.5880936 2.6080078,51.3951579 C2.98315789,51.5835945 3.44021053,51.4319532 3.62844444,51.0566004 C3.81677973,50.6813489 3.6651384,50.224499 3.28988694,50.0361637 C2.19859649,49.4885926 1.52067057,48.3913216 1.52067057,47.1725146 C1.52067057,45.406846 2.95720858,43.970308 4.72297856,43.970308 C6.48874854,43.970308 7.92528655,45.406846 7.92528655,47.1725146 C7.92528655,48.3913216 7.24736062,49.4885926 6.15607018,50.0361637 C5.78081871,50.2243977 5.62917739,50.6812476 5.81751267,51.0566004 C6.00574659,51.4318519 6.46269786,51.5835945 6.83794932,51.3951579 C8.44660429,50.5881949 9.44595712,48.9701131 9.44595712,47.1725146 C9.44595712,46.1633294 9.12676023,45.2279376 8.58537232,44.4595945 L13.5227368,39.52223 C16.9150019,42.6327018 21.3533489,44.391883 26.0117583,44.391883 L26.0118596,44.391883 C26.0118596,44.391883 26.0118596,44.391883 26.011961,44.391883 L26.0120624,44.391883 C30.7443665,44.391883 35.1592982,42.5865809 38.5012865,39.52223 L43.3655673,44.3866121 C42.7925536,45.1682339 42.4530838,46.1312982 42.4530838,47.172616 C42.4530838,49.7767719 44.5717037,51.8954932 47.175961,51.8954932 C49.7802183,51.8954932 51.8988382,49.7768733 51.8988382,47.172616 C51.8987368,44.56846 49.7799142,42.4496374 47.1757583,42.4496374 Z M4.72287719,7.92832749 C2.95710721,7.92832749 1.5205692,6.49178947 1.5205692,4.72612086 C1.5205692,2.96035088 2.95710721,1.52381287 4.72287719,1.52381287 C6.48864717,1.52381287 7.92518519,2.96035088 7.92518519,4.72612086 C7.92518519,6.49178947 6.48864717,7.92832749 4.72287719,7.92832749 Z M21.3987602,9.63267057 C19.321193,11.7450058 18.0077115,14.9449825 17.2786979,17.8309318 C15.6585887,17.2425107 14.0960546,16.4886628 12.6135984,15.5751657 C14.8465575,12.6912437 17.9148616,10.6212788 21.3987602,9.63267057 Z M18.3990799,19.7964912 C20.6133879,20.443501 22.9133489,20.8064873 25.251423,20.8712593 L25.251423,25.1698246 L17.8462378,25.1698246 C17.8864795,23.3056296 18.0744094,21.4967797 18.3990799,19.7964912 Z M11.7356803,16.818807 C13.3863002,17.8440078 15.1310877,18.6824951 16.9428772,19.3258558 C16.5776608,21.1749474 16.3676335,23.1437505 16.3255673,25.1698246 L9.08844444,25.1698246 C9.22052242,22.1975127 10.1284444,19.3284912 11.7356803,16.818807 Z M11.8109942,35.1573723 C10.2086238,32.6998908 9.22660429,29.8030955 9.08844444,26.6902924 L16.3254659,26.6902924 C16.3276959,26.797232 16.3304327,26.9040702 16.333575,27.0107057 C16.3918596,28.979306 16.6092865,30.8903314 16.9734893,32.6861053 C15.1782222,33.321154 13.4484366,34.1477817 11.8109942,35.1573723 Z M12.6986433,36.39554 C14.1672125,35.4984639 15.7140351,34.757692 17.3169123,34.1783938 C18.0457232,36.9974425 19.3479532,40.1415673 21.3974425,42.2261287 C17.932499,41.2413723 14.9102144,39.202729 12.6986433,36.39554 Z M25.251423,42.7955945 C21.7625575,42.0951657 19.6468772,37.173614 18.7631813,33.7042105 C20.8592982,33.0858869 23.0374191,32.7374971 25.251423,32.6724211 L25.251423,42.7955945 Z M25.2515244,31.1515478 C22.924499,31.2160156 20.6344717,31.5760624 18.4290838,32.2178012 C18.0860663,30.4729123 17.8877973,28.6109474 17.8463392,26.6903938 L25.2515244,26.6903938 L25.2515244,31.1515478 Z M25.2515244,19.350386 C23.0237349,19.2850058 20.8329435,18.9329669 18.7254737,18.3076491 C19.5923431,14.8180741 21.73377,9.77083041 25.2515244,9.06452242 L25.2515244,19.350386 Z M40.2126238,35.1573723 C38.5750799,34.1476803 36.8452943,33.321154 35.0499259,32.6862066 C35.4338947,30.7931228 35.654768,28.7720156 35.6980507,26.6902924 L42.9350721,26.6902924 C42.7970136,29.8030955 41.8149942,32.6998908 40.2126238,35.1573723 Z M40.2879376,16.818807 C41.8930448,19.3247407 42.8029942,22.1935595 42.9351735,25.1697232 L35.698152,25.1697232 C35.6559844,23.1437505 35.4460585,21.1749474 35.0808421,19.3259571 C36.8925302,18.6825965 38.6373177,17.8440078 40.2879376,16.818807 Z M39.4102222,15.5750643 C37.9278674,16.4885614 36.365232,17.2424094 34.7451228,17.8308304 C34.0157037,14.9433606 32.6999922,11.742269 30.6249591,9.63246784 C34.033848,10.5999922 37.1269864,12.6281949 39.4102222,15.5750643 Z M26.7720936,9.06452242 C30.2837661,9.76241715 32.4279298,14.8045926 33.2982456,18.3077505 C31.1906745,18.9328655 28.999883,19.2851072 26.7720936,19.350386 L26.7720936,9.06452242 Z M26.7720936,20.8711579 C29.110269,20.806386 31.41023,20.4436023 33.624538,19.7964912 C33.9492086,21.4966784 34.1371384,23.3056296 34.1773801,25.1696218 L26.7720936,25.1696218 L26.7720936,20.8711579 Z M26.7720936,26.6902924 L34.1773801,26.6902924 C34.135922,28.610846 33.937653,30.4728109 33.5946355,32.2176998 C31.3891462,31.5760624 29.0991189,31.2159142 26.7720936,31.1514464 L26.7720936,26.6902924 Z M26.7720936,42.7956959 L26.7720936,32.6724211 C28.9861988,32.7373957 31.1642183,33.0857856 33.2604366,33.7042105 C32.3831267,37.1484756 30.2482885,42.104694 26.7720936,42.7956959 Z M30.6262768,42.2261287 C32.6750565,40.1421754 33.9772865,36.9999766 34.706807,34.1782924 C36.3096842,34.7575906 37.8565068,35.4983626 39.325076,36.3954386 C37.1217154,39.1922885 34.1077427,41.2367096 30.6262768,42.2261287 Z M47.1757583,50.3748226 C45.4099883,50.3748226 43.9734503,48.9382846 43.9734503,47.1725146 C43.9734503,45.4141442 45.405731,43.9702066 47.1757583,43.9702066 C48.9415283,43.9702066 50.3780663,45.4067446 50.3780663,47.1725146 C50.3780663,48.9382846 48.9415283,50.3748226 47.1757583,50.3748226 Z" id="Shape"></path>
                        </g>
                    </g>
                </g>
            </g>
        </g>
    </g>
</svg>