<svg width="42px" height="56px" viewBox="0 0 42 56" version="1.1" xmlns="http://www.w3.org/2000/svg" xmlns:xlink="http://www.w3.org/1999/xlink">
    <defs>
        <linearGradient x1="1.44424438%" y1="0%" x2="100%" y2="100%" id="linearGradient-1">
            <stop stop-color="#17EAD9" offset="0%"></stop>
            <stop stop-color="#6078EA" offset="100%"></stop>
        </linearGradient>
    </defs>
    <g id="Page-1" stroke="none" stroke-width="1" fill="none" fill-rule="evenodd">
        <g id="wireframe" transform="translate(-793.000000, -4380.000000)" fill="url(#linearGradient-1)" fill-rule="nonzero">
            <g id="Tradeswap" transform="translate(390.000000, 4007.000000)">
                <g id="Flexibility" transform="translate(292.000000, 361.000000)">
                    <g id="icon" transform="translate(92.000000, 0.000000)">
                        <g id="018-clipboard-1" transform="translate(19.000000, 12.000000)">
                            <path d="M29.3036406,30.8923125 L28.819,27.2267187 C28.7596094,26.777625 28.3459531,26.4616406 27.8981719,26.5210313 L24.2325781,27.0055625 C23.7834844,27.0649531 23.4673906,27.4771875 23.5267812,27.9263906 C23.5861719,28.3755938 23.9998281,28.6910313 24.4476094,28.6321875 L26.1499219,28.4072031 L17.058125,40.2690313 C16.6279531,40.0715 16.1500937,39.9604844 15.6466406,39.9604844 C13.7745781,39.9604844 12.2514219,41.4836406 12.2514219,43.3557031 C12.2514219,45.2277656 13.7745781,46.7508125 15.6466406,46.7508125 C17.5187031,46.7508125 19.04175,45.2277656 19.04175,43.3557031 C19.04175,42.5802344 18.7797969,41.8650313 18.3406562,41.2927813 L27.4520312,29.40525 L27.677125,31.1074531 C27.7317031,31.5200156 28.0841094,31.8203594 28.4893437,31.8203594 C28.5252187,31.8203594 28.5614219,31.8180625 28.5979531,31.81325 C29.0470469,31.7538594 29.3630312,31.3414063 29.3036406,30.8923125 Z M15.6466406,45.1098594 C14.6791094,45.1098594 13.8921562,44.3229063 13.8921562,43.3554844 C13.8921562,42.3879531 14.6791094,41.601 15.6466406,41.601 C16.6140625,41.601 17.4010156,42.3879531 17.4010156,43.3554844 C17.4010156,44.3229063 16.6140625,45.1098594 15.6466406,45.1098594 Z" id="Shape"></path>
                            <path d="M29.0705625,44.9899844 L27.4359531,43.355375 L29.0705625,41.7207656 C29.3908125,41.4004063 29.3908125,40.8810937 29.0705625,40.5605156 C28.7500937,40.2402656 28.2307812,40.2402656 27.9103125,40.5605156 L26.2757031,42.195125 L24.6410938,40.5605156 C24.320625,40.2402656 23.8013125,40.2402656 23.4808438,40.5605156 C23.1604844,40.8809844 23.1604844,41.4004063 23.4808438,41.7207656 L25.1154531,43.355375 L23.4808438,44.9899844 C23.1604844,45.3104531 23.1604844,45.8297656 23.4808438,46.1502344 C23.8014219,46.4705937 24.320625,46.4704844 24.6410938,46.1502344 L26.2757031,44.515625 L27.9103125,46.1502344 C28.2308906,46.4705937 28.7500937,46.4704844 29.0705625,46.1502344 C29.3909219,45.8296562 29.3909219,45.3103438 29.0705625,44.9899844 Z" id="Shape"></path>
                            <path d="M16.807,29.5488594 L18.4416094,27.91425 C18.7619688,27.5937812 18.7619688,27.0744688 18.4416094,26.754 C18.1211406,26.43375 17.6018281,26.43375 17.2813594,26.754 L15.64675,28.3886094 L14.0120313,26.754 C13.6915625,26.43375 13.17225,26.43375 12.8517813,26.754 C12.5314219,27.0744688 12.5314219,27.5937812 12.8517813,27.91425 L14.4863906,29.5488594 L12.8517813,31.1834687 C12.5313125,31.5039375 12.5313125,32.02325 12.8516719,32.3437188 C13.0119063,32.5038438 13.2219063,32.5839062 13.4317969,32.5839062 C13.6416875,32.5839062 13.8516875,32.5038438 14.0119219,32.3437188 L15.6465313,30.7091094 L17.28125,32.3437188 C17.4414844,32.5038438 17.6514844,32.5839062 17.861375,32.5839062 C18.0712656,32.5839062 18.2812656,32.5038438 18.4415,32.3437188 C18.7618594,32.02325 18.7618594,31.5039375 18.4415,31.1834687 L16.807,29.5488594 Z" id="Shape"></path>
                            <path d="M27.5545156,18.529 L14.0077656,18.529 C13.554625,18.529 13.1874531,18.8961719 13.1874531,19.3493125 C13.1874531,19.8024531 13.554625,20.169625 14.0077656,20.169625 L27.5544062,20.169625 C28.0075469,20.169625 28.3747187,19.8024531 28.3747187,19.3493125 C28.3747187,18.8961719 28.0076563,18.529 27.5545156,18.529 Z" id="Shape"></path>
                            <path d="M27.5545156,21.7173906 L14.0077656,21.7173906 C13.554625,21.7173906 13.1874531,22.0845625 13.1874531,22.5377031 C13.1874531,22.9908437 13.554625,23.3580156 14.0077656,23.3580156 L27.5544062,23.3580156 C28.0075469,23.3580156 28.3747187,22.9908437 28.3747187,22.5377031 C28.3748281,22.0845625 28.0076562,21.7173906 27.5545156,21.7173906 Z" id="Shape"></path>
                            <path d="M40.735625,32.1461875 C40.2824844,32.1461875 39.9153125,32.5133594 39.9153125,32.9665 L39.9153125,52.2090625 C39.9153125,53.3947969 38.9507344,54.3592656 37.7651094,54.3592656 L3.79717188,54.3592656 C2.61154687,54.3592656 1.64707812,53.3946875 1.64707812,52.2090625 L1.64707812,9.89559375 C1.64707812,8.70985938 2.61154687,7.74539062 3.79717188,7.74539062 L10.7464219,7.74539062 L10.7464219,8.20225 L10.7464219,8.20990625 C10.7464219,9.38601562 11.7033437,10.3428281 12.8793438,10.3428281 L12.887,10.3428281 L13.1873438,10.3428281 L13.1873438,11.8041875 L5.8095625,11.8041875 C5.04328125,11.8041875 4.41973437,12.427625 4.41973437,13.1940156 L4.41973437,50.1746875 C4.41973437,50.9409687 5.04317187,51.5645156 5.8095625,51.5645156 L18.8802031,51.5645156 C19.3333438,51.5645156 19.7005156,51.1973437 19.7005156,50.7442031 C19.7005156,50.2910625 19.3333438,49.9238906 18.8802031,49.9238906 L6.06046875,49.9238906 L6.06046875,13.4448125 L13.1873438,13.4448125 L13.1873438,14.7369688 C13.1873438,15.7350156 13.9992344,16.5470156 14.9973906,16.5470156 L26.5646719,16.5470156 C27.5628281,16.5470156 28.3747188,15.7350156 28.3747188,14.7369688 L28.3747188,13.4448125 L35.5015937,13.4448125 L35.5015937,49.9236719 L22.7085469,49.9236719 C22.2554063,49.9236719 21.8882344,50.2908438 21.8882344,50.7439844 C21.8882344,51.197125 22.2554063,51.5642969 22.7085469,51.5642969 L35.7525,51.5642969 C36.5187812,51.5642969 37.1423281,50.9408594 37.1423281,50.1744688 L37.1423281,13.1939062 C37.1423281,12.427625 36.5188906,11.8040781 35.7525,11.8040781 L28.3747188,11.8040781 L28.3747188,10.3428281 L28.6750625,10.3428281 L28.6827187,10.3428281 C29.8588281,10.3428281 30.8156406,9.38590625 30.8156406,8.20990625 L30.8156406,8.20225 L30.8156406,7.74539062 L37.7647812,7.74539062 C38.9505156,7.74539062 39.9149844,8.70996875 39.9149844,9.89559375 L39.9149844,29.1382656 C39.9150937,29.5912969 40.2822656,29.9585781 40.7354062,29.9585781 C41.1885469,29.9585781 41.5557187,29.5914062 41.5557187,29.1382656 L41.5557187,9.89559375 C41.5557187,7.80532812 39.8550469,6.10465625 37.7647812,6.10465625 L30.8156406,6.10465625 L30.8156406,5.6074375 C30.8156406,4.43132813 29.8587187,3.47451563 28.6827187,3.47451563 L24.2151875,3.47451563 L24.2151875,2.14057813 C24.2152969,0.9603125 23.2549844,0 22.0747188,0 L19.4876719,0 C18.3072969,0 17.3470938,0.9603125 17.3470938,2.14057813 L17.3470938,3.47429688 L12.8795625,3.47429688 C11.7034531,3.47429688 10.7466406,4.43110937 10.7466406,5.60721875 L10.7466406,6.1044375 L3.79739063,6.1044375 C1.707125,6.1044375 0.0065625,7.80510938 0.0065625,9.895375 L0.0065625,52.2088437 C0.0065625,54.2991094 1.707125,55.9997812 3.79739063,55.9997812 L37.765,55.9997812 C39.8552656,55.9997812 41.5559375,54.2991094 41.5559375,52.2088437 L41.5559375,32.9665 C41.5559375,32.5133594 41.1887656,32.1461875 40.735625,32.1461875 Z M26.7339844,14.7368594 C26.7339844,14.8302656 26.6580781,14.9061719 26.5646719,14.9061719 L14.9973906,14.9061719 C14.9039844,14.9061719 14.8280781,14.8302656 14.8280781,14.7368594 L14.8280781,13.4447031 L26.7340938,13.4447031 L26.7340938,14.7368594 L26.7339844,14.7368594 Z M26.7342031,11.8041875 L26.7339844,11.8041875 L14.8281875,11.8041875 L14.8281875,10.3428281 L26.7342031,10.3428281 L26.7342031,11.8041875 Z M18.9875,2.14057812 C18.9876094,1.86954687 19.2165313,1.64073437 19.4874531,1.64073437 L22.0745,1.64073437 C22.3455313,1.64073437 22.5743438,1.86965625 22.5743438,2.14057812 L22.5743438,3.47429687 L18.9875,3.47429687 L18.9875,2.14057812 Z M12.3870469,5.60732813 C12.3870469,5.3405625 12.6124688,5.11514063 12.8792344,5.11514063 C13.5785781,5.11514063 27.9900469,5.11514063 28.6827188,5.11514063 C28.9494844,5.11514063 29.1749063,5.3405625 29.1749063,5.60732813 C29.1749063,6.5765 29.1749063,7.27934375 29.1749063,8.20214062 C29.1749063,8.47317187 28.9459844,8.70198438 28.6750625,8.70198438 C28.3335938,8.70198438 13.3872813,8.70198438 12.8868906,8.70198438 C12.6158594,8.70198438 12.3870469,8.4730625 12.3870469,8.20214063 C12.3870469,7.2786875 12.3870469,6.57715625 12.3870469,5.60732813 Z" id="Shape"></path>
                        </g>
                    </g>
                </g>
            </g>
        </g>
    </g>
</svg>