<svg width="52px" height="49px" viewBox="0 0 52 49" version="1.1" xmlns="http://www.w3.org/2000/svg" xmlns:xlink="http://www.w3.org/1999/xlink"> 
    <defs>
        <linearGradient x1="1.44424438%" y1="0%" x2="100%" y2="100%" id="linearGradient-1">
            <stop stop-color="#17EAD9" offset="0%"></stop>
            <stop stop-color="#6078EA" offset="100%"></stop>
        </linearGradient>
    </defs>
    <g id="Page-1" stroke="none" stroke-width="1" fill="none" fill-rule="evenodd">
        <g id="wireframe" transform="translate(-788.000000, -4484.000000)" fill="url(#linearGradient-1)" fill-rule="nonzero">
            <g id="Tradeswap" transform="translate(390.000000, 3837.000000)">
                <g id="AI-Matching" transform="translate(292.000000, 631.000000)">
                    <g id="icon" transform="translate(92.000000, 0.000000)">
                        <g id="037-browser" transform="translate(14.000000, 16.000000)">
                            <path d="M44.8728516,4.42903906 L13.3174844,4.42903906 C12.8968125,4.42903906 12.5557656,4.77008594 12.5557656,5.19075781 C12.5557656,5.61142969 12.8968125,5.95247656 13.3174844,5.95247656 L44.8728516,5.95247656 C45.2935234,5.95247656 45.6345703,5.61142969 45.6345703,5.19075781 C45.6345703,4.77008594 45.2935234,4.42903906 44.8728516,4.42903906 Z" id="Shape"></path>
                            <path d="M41.8070859,33.1609687 L40.1491797,33.1609687 C40.0574687,32.8887812 39.9475781,32.6233984 39.8201172,32.3662422 L40.9923516,31.1940078 C41.3860078,30.8004531 41.3862109,30.1629453 40.9923516,29.7693906 L39.5082187,28.2852578 C39.2008906,27.9780313 38.7430469,27.9125234 38.3699062,28.0862969 L38.3699062,25.4245469 C38.3699062,24.7722109 37.8391406,24.2413437 37.1868047,24.2413437 L33.9425937,24.2413437 C33.7357109,23.5422891 33.4568203,22.8688281 33.1092734,22.2288828 L35.4028594,19.9352969 C35.6263984,19.7118594 35.7494922,19.4146875 35.7494922,19.0985234 C35.7494922,18.7823594 35.6263984,18.4852891 35.4029609,18.2619531 L32.8565859,15.7154766 C32.3951875,15.2542813 31.6446406,15.2544844 31.1834453,15.7155781 L28.8896563,18.0092656 C28.2497109,17.6618203 27.5763516,17.3830313 26.8772969,17.1759453 L26.8772969,13.9317344 C26.8772969,13.2793984 26.3465313,12.7485312 25.6941953,12.7485312 L22.0930938,12.7485312 C21.4407578,12.7485312 20.9098906,13.2792969 20.9098906,13.9317344 L20.9098906,17.1758437 C20.2107344,17.3828281 19.5372734,17.6616172 18.8974297,18.0091641 L16.6037422,15.715375 C16.1424453,15.2542813 15.3918984,15.2543828 14.9306016,15.7154766 L12.3843281,18.2618516 C12.1608906,18.4852891 12.0377969,18.7823594 12.0377969,19.0984219 C12.0377969,19.4143828 12.1608906,19.7115547 12.3843281,19.9350938 L14.6780156,22.2287812 C14.3305703,22.868625 14.0516797,23.5420859 13.8446953,24.2411406 L10.6004844,24.2411406 C9.94814844,24.2411406 9.41738281,24.7719063 9.41738281,25.4243437 L9.41738281,29.0253438 C9.41738281,29.6776797 9.94814844,30.2084453 10.6004844,30.2084453 L13.8446953,30.2084453 C14.0515781,30.9076016 14.3303672,31.5809609 14.6780156,32.2209062 L12.3842266,34.5146953 C11.9230313,34.9759922 11.9230313,35.7266406 12.3843281,36.1878359 L14.9308047,38.7343125 C15.3921016,39.1955078 16.14275,39.1955078 16.6039453,38.7342109 L18.8976328,36.4404219 C19.5374766,36.7879688 20.2110391,37.0667578 20.9100938,37.2737422 L20.9100938,40.5178516 C20.9100938,41.1701875 21.4408594,41.7010547 22.0932969,41.7010547 L25.6943984,41.7010547 C26.3467344,41.7010547 26.8775,41.1702891 26.8775,40.5178516 L26.8775,40.2507422 C26.9251328,40.4058281 27.0100391,40.5479141 27.1279531,40.6658281 L28.6118828,42.1497578 C29.0055391,42.5435156 29.6427422,42.5435156 30.0363984,42.1497578 L31.2087344,40.9775234 C31.4658906,41.1049844 31.7312734,41.214875 32.0035625,41.3065859 L32.0035625,42.9644922 C32.0035625,43.5199375 32.4554141,43.9718906 33.0109609,43.9718906 L35.1095469,43.9718906 C35.6649922,43.9718906 36.1168438,43.5200391 36.1168438,42.9644922 L36.1168438,41.3065859 C36.3890313,41.214875 36.6544141,41.1049844 36.9116719,40.9775234 L38.0839063,42.1497578 C38.4775625,42.5435156 39.1148672,42.5435156 39.5085234,42.1497578 L40.9924531,40.6658281 C41.3862109,40.2721719 41.3862109,39.6348672 40.9924531,39.2412109 L39.8201172,38.068875 C39.9475781,37.8116172 40.0574687,37.5463359 40.1491797,37.2740469 L41.8070859,37.2740469 C42.3625313,37.2740469 42.8144844,36.8221953 42.8144844,36.26675 L42.8144844,34.1681641 C42.8143828,33.6128203 42.3625313,33.1609687 41.8070859,33.1609687 Z M26.3132188,33.1609687 C25.7577734,33.1609687 25.3059219,33.6128203 25.3059219,34.1683672 C25.3059219,36.4084297 25.2880469,36.3826328 25.3599531,36.5926641 C25.3506094,36.6666016 25.3539609,36.4629687 25.3539609,40.1777187 L22.4336328,40.1777187 L22.4336328,36.6879297 C22.4336328,36.3340859 22.1899844,36.0268594 21.8453828,35.9462187 C20.8980078,35.7246094 19.9996875,35.3525859 19.1752031,34.8404062 C18.8747813,34.6537344 18.4850859,34.698625 18.2346328,34.948875 L15.7672734,37.4163359 L13.7023047,35.3513672 L16.1696641,32.8840078 C16.4199141,32.6337578 16.4648047,32.2441641 16.2781328,31.9434375 C15.7660547,31.11875 15.3940313,30.2205312 15.1724219,29.2732578 C15.0918828,28.9286562 14.7845547,28.6850078 14.4307109,28.6850078 L10.9409219,28.6850078 L10.9409219,25.7646797 L14.4307109,25.7646797 C14.7845547,25.7646797 15.0917813,25.5210312 15.1724219,25.1764297 C15.3940313,24.2291562 15.7659531,23.3309375 16.2780313,22.5063516 C16.4647031,22.2057266 16.4198125,21.8161328 16.1695625,21.5657813 L13.7022031,19.0984219 L15.7671719,17.0334531 L18.2345313,19.5008125 C18.4847813,19.7510625 18.874375,19.7959531 19.1751016,19.6092813 C19.9994844,19.0973047 20.8979062,18.7251797 21.8452812,18.5035703 C22.1898828,18.4230313 22.4335313,18.1157031 22.4335313,17.7618594 L22.4335313,14.2720703 L25.3538594,14.2720703 L25.3538594,17.7618594 C25.3538594,18.1157031 25.5975078,18.4229297 25.9421094,18.5035703 C26.8893828,18.7251797 27.7877031,19.0972031 28.6122891,19.6092813 C28.9129141,19.7958516 29.3025078,19.7511641 29.5528594,19.5008125 L32.0203203,17.0334531 L34.0851875,19.0984219 L31.6178281,21.5657813 C31.3675781,21.8160312 31.3226875,22.205625 31.5093594,22.50625 C32.0214375,23.3310391 32.3935625,24.2292578 32.6150703,25.1764297 C32.6956094,25.5210312 33.0029375,25.7646797 33.3567813,25.7646797 L36.8465703,25.7646797 L36.8465703,28.6850078 L36.1168438,28.6850078 L36.1168438,27.4704219 C36.1168438,26.9149766 35.6649922,26.4630234 35.1095469,26.4630234 L33.0109609,26.4630234 C32.4555156,26.4630234 32.0035625,26.914875 32.0035625,27.4704219 L32.0035625,29.1283281 C31.7312734,29.2200391 31.4659922,29.3299297 31.2087344,29.4573906 L30.0362969,28.2850547 C29.7642109,28.0131719 29.3530859,27.9215625 28.9927422,28.0463828 C29.0357031,27.7788672 29.0580469,27.5043437 29.0580469,27.2248437 C29.0580469,24.3772344 26.7414063,22.0605937 23.8937969,22.0605937 C21.0461875,22.0605937 18.7295469,24.3772344 18.7295469,27.2248437 C18.7295469,30.0724531 21.0461875,32.3890938 23.8937969,32.3890938 C25.1309297,32.3890938 26.2677188,31.9519687 27.1580156,31.2237656 L28.3001875,32.3659375 C28.1700859,32.6284766 28.0585703,32.9012734 27.971125,33.1607656 L26.3132188,33.1607656 L26.3132188,33.1609687 Z M27.5345078,27.2248438 C27.5345078,29.2323281 25.9012812,30.8655547 23.8937969,30.8655547 C21.8863125,30.8655547 20.2530859,29.2323281 20.2530859,27.2248438 C20.2530859,25.2173594 21.8863125,23.5841328 23.8937969,23.5841328 C25.9012812,23.5841328 27.5345078,25.2173594 27.5345078,27.2248438 Z M27.1279531,39.2411094 C27.0100391,39.3590234 26.9251328,39.5010078 26.8775,39.6559922 L26.8775,37.2740469 L27.971125,37.2740469 C28.0628359,37.5462344 28.1727266,37.8116172 28.3001875,38.068875 L27.1279531,39.2411094 Z M41.2911484,35.7505078 L39.5751484,35.7505078 C39.2213047,35.7505078 38.9140781,35.9941563 38.8334375,36.3387578 C38.7122734,36.8569297 38.5087422,37.3483906 38.2285312,37.7996328 C38.0418594,38.1002578 38.08675,38.4898516 38.337,38.7402031 L39.5503672,39.9535703 L38.7964687,40.7074688 L37.5832031,39.4942031 C37.3330547,39.2439531 36.9433594,39.1990625 36.6426328,39.3857344 C36.1915937,39.6658437 35.7000312,39.869375 35.1817578,39.9906406 C34.8372578,40.0711797 34.5935078,40.3785078 34.5935078,40.7323516 L34.5935078,42.4483516 L33.5272031,42.4483516 L33.5272031,40.7323516 C33.5272031,40.3785078 33.2835547,40.0712813 32.9389531,39.9906406 C32.4206797,39.869375 31.9291172,39.6658438 31.4780781,39.3857344 C31.1775547,39.1990625 30.7878594,39.2438516 30.5375078,39.4942031 L29.3242422,40.7074688 L28.5703437,39.9535703 L29.7836094,38.7402031 C30.0338594,38.4899531 30.07875,38.1003594 29.8920781,37.7996328 C29.6119687,37.3485938 29.4084375,36.8569297 29.2871719,36.3387578 C29.2066328,35.9942578 28.8993047,35.7505078 28.5454609,35.7505078 L26.8295625,35.7505078 L26.8295625,34.6842031 L28.5455625,34.6842031 C28.855125,34.6842031 29.1291406,34.4976328 29.24675,34.2201641 C29.3122578,34.0656875 29.3963516,33.4333594 29.8920781,32.6350781 C30.07875,32.3344531 30.0338594,31.9448594 29.7836094,31.6945078 L28.5703437,30.4812422 L29.3242422,29.7272422 L30.5375078,30.9405078 C30.7877578,31.1907578 31.1773516,31.23575 31.4780781,31.0489766 C31.9290156,30.7689687 32.4205781,30.5654375 32.9389531,30.4441719 C33.2834531,30.3636328 33.5272031,30.0563047 33.5272031,29.7024609 L33.5272031,27.9864609 L34.5935078,27.9864609 C34.5935078,28.6367656 34.5935078,29.0467734 34.5935078,29.7024609 C34.5935078,30.0563047 34.8371562,30.3635312 35.1817578,30.4441719 C35.7000312,30.5654375 36.1915937,30.7688672 36.6426328,31.0489766 C36.9433594,31.23575 37.3329531,31.1907578 37.5832031,30.9405078 L38.7963672,29.7274453 L39.5502656,30.4813437 L38.337,31.6946094 C38.08675,31.9448594 38.0418594,32.3344531 38.2285312,32.6351797 C38.5086406,33.0862187 38.7121719,33.5777813 38.8334375,34.0959531 C38.9139766,34.4405547 39.2213047,34.6842031 39.5751484,34.6842031 L41.2911484,34.6842031 L41.2911484,35.7505078 Z" id="Shape"></path>
                            <path d="M34.0602031,31.8900156 C32.2254766,31.8900156 30.7327109,33.3827813 30.7327109,35.2175078 C30.7327109,37.0522344 32.2254766,38.545 34.0602031,38.545 C35.8949297,38.545 37.3875938,37.0523359 37.3875938,35.2175078 C37.3875938,33.3826797 35.8949297,31.8900156 34.0602031,31.8900156 Z M34.0602031,37.0214609 C33.0655,37.0214609 32.25625,36.2123125 32.25625,35.2175078 C32.25625,34.2227031 33.0655,33.4135547 34.0602031,33.4135547 C35.0549063,33.4135547 35.8640547,34.2228047 35.8640547,35.2175078 C35.8640547,36.2122109 35.0549063,37.0214609 34.0602031,37.0214609 Z" id="Shape"></path>
                            <path d="M51.2382812,28.2405703 C50.8176094,28.2405703 50.4765625,28.5816172 50.4765625,29.0022891 L50.4765625,46.7026016 C50.4765625,46.9503125 50.2672422,47.1596328 50.0195312,47.1596328 L27.7774453,47.1596328 C27.3567734,47.1596328 27.0157266,47.5006797 27.0157266,47.9213516 C27.0157266,48.3420234 27.3567734,48.6830703 27.7774453,48.6830703 L50.0193281,48.6830703 C51.1114297,48.6830703 51.9998984,47.7946016 51.9998984,46.7025 L51.9998984,29.0021875 C52,28.5816172 51.6589531,28.2405703 51.2382812,28.2405703 Z" id="Shape"></path>
                            <path d="M50.0194297,0.066828125 L49.9802266,0.066828125 L9.1333125,0.066828125 L2.01977344,0.066828125 L1.98057031,0.066828125 C0.888570313,0.066828125 0,0.955398438 0,2.04739844 L0,2.08660156 L0,46.7026016 C0,47.7947031 0.888570313,48.6831719 1.98057031,48.6831719 L24.2224531,48.6831719 C24.643125,48.6831719 24.9841719,48.342125 24.9841719,47.9214531 C24.9841719,47.5007812 24.643125,47.1597344 24.2224531,47.1597344 L1.98057031,47.1597344 C1.73285938,47.1597344 1.52353906,46.9504141 1.52353906,46.7027031 L1.52353906,10.3146875 L50.4764609,10.3146875 L50.4764609,25.4473984 C50.4764609,25.8680703 50.8175078,26.2091172 51.2381797,26.2091172 C51.6588516,26.2091172 51.9998984,25.8680703 51.9998984,25.4473984 L51.9998984,2.08660156 L51.9998984,2.04739844 C52,0.955398438 51.1114297,0.066828125 50.0194297,0.066828125 Z M8.37159375,8.79114844 L1.52353906,8.79114844 L1.52353906,2.08660156 C1.52353906,1.81766406 1.75083594,1.59036719 2.01977344,1.59036719 L8.37159375,1.59036719 L8.37159375,8.79114844 Z M50.4764609,8.79114844 L9.89513281,8.79114844 L9.89513281,1.59036719 L49.9802266,1.59036719 C50.2491641,1.59036719 50.4764609,1.81766406 50.4764609,2.08660156 L50.4764609,8.79114844 Z" id="Shape"></path>
                        </g>
                    </g>
                </g>
            </g>
        </g>
    </g>
</svg>