<svg width="49px" height="54px" viewBox="0 0 49 54" version="1.1" xmlns="http://www.w3.org/2000/svg" xmlns:xlink="http://www.w3.org/1999/xlink">
    <!-- Generator: Sketch 49.2 (51160) - http://www.bohemiancoding.com/sketch -->
    <defs>
        <linearGradient x1="1.44424438%" y1="0%" x2="100%" y2="100%" id="tradeswap-icon-6-linearGradient-1">
            <stop stop-color="#17EAD9" offset="0%"></stop>
            <stop stop-color="#6078EA" offset="100%"></stop>
        </linearGradient>
    </defs>
    <g id="Page-1" stroke="none" stroke-width="1" fill="none" fill-rule="evenodd">
        <g id="wireframe" transform="translate(-1374.000000, -4481.000000)" fill="url(#tradeswap-icon-6-linearGradient-1)" fill-rule="nonzero">
            <g id="Tradeswap" transform="translate(390.000000, 3837.000000)">
                <g id="Digital-personas" transform="translate(877.000000, 631.000000)">
                    <g id="icon" transform="translate(92.000000, 0.000000)">
                        <g id="007-computer-1" transform="translate(15.000000, 13.000000)">
                            <path d="M15.7871953,35.1052734 L14.1780586,35.1052734 C13.7411016,35.1052734 13.387043,35.459332 13.387043,35.8962891 C13.387043,36.3332461 13.7411016,36.6873047 14.1780586,36.6873047 L15.7871953,36.6873047 C16.2241523,36.6873047 16.5782109,36.3332461 16.5782109,35.8962891 C16.5782109,35.459332 16.2240469,35.1052734 15.7871953,35.1052734 Z" id="Shape"></path>
                            <path d="M21.7361602,35.1052734 L20.1271289,35.1052734 C19.6901719,35.1052734 19.3361133,35.459332 19.3361133,35.8962891 C19.3361133,36.3332461 19.6901719,36.6873047 20.1271289,36.6873047 L21.7361602,36.6873047 C22.1731172,36.6873047 22.5271758,36.3332461 22.5271758,35.8962891 C22.5271758,35.459332 22.1731172,35.1052734 21.7361602,35.1052734 Z" id="Shape"></path>
                            <path d="M27.685125,35.1052734 L26.0759883,35.1052734 C25.6390313,35.1052734 25.2849727,35.459332 25.2849727,35.8962891 C25.2849727,36.3332461 25.6390313,36.6873047 26.0759883,36.6873047 L27.685125,36.6873047 C28.122082,36.6873047 28.4761406,36.3332461 28.4761406,35.8962891 C28.4761406,35.459332 28.122082,35.1052734 27.685125,35.1052734 Z" id="Shape"></path>
                            <path d="M33.6340898,35.1052734 L32.0250586,35.1052734 C31.5881016,35.1052734 31.234043,35.459332 31.234043,35.8962891 C31.234043,36.3332461 31.5881016,36.6873047 32.0250586,36.6873047 L33.6340898,36.6873047 C34.0710469,36.6873047 34.4251055,36.3332461 34.4251055,35.8962891 C34.4251055,35.459332 34.0710469,35.1052734 33.6340898,35.1052734 Z" id="Shape"></path>
                            <path d="M47.4966914,25.5350391 C47.0597344,25.5350391 46.7056758,25.8890977 46.7056758,26.3260547 L46.7056758,40.8912891 C46.7056758,42.2867461 45.5701992,43.4220117 44.1748477,43.4220117 C43.4291836,43.4220117 5.16733594,43.4220117 4.12994531,43.4220117 C2.73448828,43.4220117 1.59911719,42.2866406 1.59911719,40.8912891 L1.59911719,8.06930859 C1.59911719,6.67385156 2.73459375,5.53858594 4.12994531,5.53858594 L29.0642344,5.53858594 L29.0642344,6.7989375 L24.3614883,6.7989375 L24.2965195,6.7989375 C23.7608438,6.7989375 23.3078555,7.15763672 23.1636797,7.64732813 C22.4256094,7.64732813 5.54438672,7.64732813 4.79576953,7.64732813 L4.79566406,7.64732813 C4.53610547,7.64732813 4.29764063,7.73898047 4.11043359,7.89127734 C4.10842969,7.89296484 4.10610938,7.89433594 4.10410547,7.89602344 C4.08744141,7.90973438 4.07204297,7.92481641 4.05622266,7.93947656 C4.04651953,7.94854688 4.03618359,7.95687891 4.02679688,7.96626563 C4.01741016,7.97565234 4.00907813,7.98598828 4.00000781,7.99569141 C3.98534766,8.01151172 3.97026563,8.02691016 3.95655469,8.04357422 C3.95486719,8.04557813 3.95349609,8.04789844 3.95180859,8.04990234 C3.79951172,8.23710938 3.70785938,8.47546875 3.70785938,8.73513281 L3.70785938,8.73523828 C3.70785938,10.2616875 3.70785938,38.8759922 3.70785938,40.2252539 C3.70785938,40.8251602 4.19596875,41.3131641 4.795875,41.3131641 L43.5088125,41.3131641 C44.1087188,41.3131641 44.5967227,40.8251602 44.5967227,40.2252539 C44.5967227,38.8358086 44.5967227,10.1906016 44.5967227,8.73523828 L44.5967227,8.73513281 C44.5967227,8.17277344 44.1677813,7.70860547 43.6198711,7.6528125 C43.5833789,7.64912109 43.5462539,7.64722266 43.5088125,7.64722266 L36.5952305,7.64722266 L36.5952305,5.53848047 L44.1746367,5.53848047 C45.5700938,5.53848047 46.7054648,6.67385156 46.7054648,8.06920313 L46.7054648,22.634332 C46.7054648,23.0711836 47.0595234,23.4253477 47.4964805,23.4253477 C47.9334375,23.4253477 48.2874961,23.0712891 48.2874961,22.634332 L48.2874961,8.06930859 C48.2874961,5.80151953 46.4424258,3.95644922 44.1745313,3.95644922 L36.595125,3.95644922 L36.595125,1.18135547 C36.5952305,0.529875 36.0653555,0 35.413875,0 L30.2453789,0 C29.5941094,0 29.0641289,0.529875 29.0641289,1.18135547 L29.0641289,3.95644922 L4.12994531,3.95644922 C1.86205078,3.95644922 0.0169804688,5.80151953 0.0169804688,8.06930859 L0.0169804688,40.8913945 C0.0169804688,43.1592891 1.86205078,45.0042539 4.12994531,45.0042539 L17.842043,45.0042539 L17.842043,48.6583242 L15.3192305,48.6583242 C14.1596016,48.6583242 13.2162891,49.6017422 13.2162891,50.7612656 L13.2162891,51.8969531 C13.2162891,53.0566875 14.159707,54 15.3192305,54 L22.060582,54 C22.4975391,54 22.8515977,53.6459414 22.8515977,53.2089844 C22.8515977,52.7720273 22.4975391,52.4179688 22.060582,52.4179688 L15.3192305,52.4179688 C15.0320391,52.4179688 14.7984258,52.18425 14.7984258,51.8970586 L14.7984258,50.7613711 C14.7984258,50.4741797 15.0321445,50.2405664 15.3192305,50.2405664 L32.985668,50.2405664 C33.2728594,50.2405664 33.5064727,50.4742852 33.5064727,50.7613711 L33.5064727,51.8970586 C33.5064727,52.1843555 33.2727539,52.4179688 32.985668,52.4179688 L25.7521992,52.4179688 C25.3152422,52.4179688 24.9611836,52.7720273 24.9611836,53.2089844 C24.9611836,53.6459414 25.3152422,54 25.7521992,54 L32.985668,54 C34.1452969,54 35.0886094,53.056582 35.0886094,51.8969531 L35.0886094,50.7612656 C35.0886094,49.6016367 34.1451914,48.6583242 32.985668,48.6583242 L30.4628555,48.6583242 L30.4628555,45.0042539 L44.1749531,45.0042539 C46.4428477,45.0042539 48.287918,43.1592891 48.287918,40.8913945 L48.287918,26.3261602 C48.2878125,25.8890977 47.9337539,25.5350391 47.4966914,25.5350391 Z M24.6970898,8.43834375 L24.6970898,8.38096875 L29.0640234,8.38096875 L29.0640234,31.9546055 L24.6970898,31.9546055 C24.6970898,29.2584023 24.6970898,11.0137852 24.6970898,8.43834375 Z M11.7891914,9.22946484 L23.1149531,9.22946484 L23.1149531,12.7858711 L18.3473438,12.7858711 C17.9865352,12.7858711 17.6634844,12.9489258 17.4465352,13.204793 L11.7891914,13.204793 L11.7891914,9.22946484 Z M23.1149531,14.3681133 L23.1149531,31.9545 L18.748125,31.9545 C18.748125,30.7692422 18.748125,14.9253047 18.748125,14.3681133 L23.1149531,14.3681133 Z M5.28978516,9.22935937 L10.2070547,9.22935937 L10.2070547,13.2046875 L5.28978516,13.2046875 L5.28978516,9.22935937 Z M36.595125,9.22935937 L43.0144805,9.22935937 L43.0144805,13.2046875 L36.595125,13.2046875 L36.595125,9.22935937 Z M30.6462656,1.58213672 L35.0130937,1.58213672 C35.0130937,2.79260156 35.0130937,30.9339844 35.0130937,31.9545 L30.6462656,31.9545 C30.6462656,30.7276875 30.6462656,2.74661719 30.6462656,1.58213672 Z M38.6265586,33.5366367 C39.0635156,33.5366367 39.4175742,33.1825781 39.4175742,32.7456211 C39.4175742,32.3086641 39.0635156,31.9546055 38.6265586,31.9546055 L36.595125,31.9546055 L36.595125,14.7868242 L43.0144805,14.7868242 L43.0144805,39.7309219 L5.28978516,39.7309219 L5.28978516,14.7868242 C7.84634766,14.7868242 14.9448164,14.7868242 17.1660937,14.7868242 L17.1660937,18.4701094 L12.4633477,18.4701094 L12.3983789,18.4701094 C11.7470039,18.4701094 11.2170234,18.9999844 11.2170234,19.6514648 L11.2170234,19.7163281 L11.2170234,19.7164336 L11.2170234,31.9545 L9.18569531,31.9545 C8.74873828,31.9545 8.39467969,32.3085586 8.39467969,32.7455156 C8.39467969,33.1824727 8.74873828,33.5365312 9.18569531,33.5365312 C10.3387852,33.5366367 37.5541523,33.5366367 38.6265586,33.5366367 Z M17.1660938,20.0522461 L17.1660938,31.9545 L12.7992656,31.9545 L12.7992656,20.0522461 L17.1660938,20.0522461 Z M28.8805078,48.6582187 L19.4240742,48.6582187 L19.4240742,45.0042539 L28.8805078,45.0042539 L28.8805078,48.6582187 Z" id="Shape"></path>
                        </g>
                    </g>
                </g>
            </g>
        </g>
    </g>
</svg>