<svg width="60px" height="50px" viewBox="0 0 60 50" version="1.1" xmlns="http://www.w3.org/2000/svg" xmlns:xlink="http://www.w3.org/1999/xlink">
    <defs>
        <linearGradient x1="1.44424438%" y1="0%" x2="100%" y2="100%" id="linearGradient-1">
            <stop stop-color="#17EAD9" offset="0%"></stop>
            <stop stop-color="#6078EA" offset="100%"></stop>
        </linearGradient>
    </defs>
    <g id="Page-1" stroke="none" stroke-width="1" fill="none" fill-rule="evenodd">
        <g id="wireframe" transform="translate(-1077.000000, -4383.000000)" fill="url(#linearGradient-1)" fill-rule="nonzero">
            <g id="Tradeswap" transform="translate(390.000000, 4007.000000)">
                <g id="Blockchain" transform="translate(585.000000, 361.000000)">
                    <g id="icon" transform="translate(92.000000, 0.000000)">
                        <g id="049-networking" transform="translate(10.000000, 15.000000)">
                            <path d="M30.0707813,2.83125 C28.1765625,2.83125 26.6355469,4.37238281 26.6355469,6.26648437 C26.6355469,8.16058594 28.1765625,9.70160156 30.0707813,9.70160156 C31.965,9.70160156 33.5058984,8.16058594 33.5058984,6.26648437 C33.5057813,4.37226563 31.965,2.83125 30.0707813,2.83125 Z M30.0706641,7.94367188 C29.1458203,7.94367188 28.3933594,7.19132813 28.3933594,6.26648438 C28.3933594,5.34164063 29.1457031,4.58917969 30.0706641,4.58917969 C30.9955078,4.58929688 31.7478516,5.34164063 31.7478516,6.26648438 C31.7477344,7.19121094 30.9953906,7.94367188 30.0706641,7.94367188 Z" id="Shape"></path>
                            <path d="M50.5552734,33.6992578 C48.6610547,33.6992578 47.1200391,35.2402734 47.1200391,37.1344922 C47.1200391,39.0285938 48.6610547,40.5696094 50.5552734,40.5696094 C52.4494922,40.5696094 53.9905078,39.0285938 53.9905078,37.1344922 C53.9905078,35.2402734 52.4494922,33.6992578 50.5552734,33.6992578 Z M50.5552734,38.8116797 C49.6303125,38.8116797 48.8779687,38.0593359 48.8779687,37.1344922 C48.8779687,36.2096484 49.6303125,35.4571875 50.5552734,35.4571875 C51.4801172,35.4571875 52.2325781,36.2095313 52.2325781,37.1344922 C52.2325781,38.0592188 51.4802344,38.8116797 50.5552734,38.8116797 Z" id="Shape"></path>
                            <path d="M9.44472656,33.6992578 C7.550625,33.6992578 6.00949219,35.2402734 6.00949219,37.1344922 C6.00949219,39.0285938 7.55050781,40.5696094 9.44472656,40.5696094 C11.3389453,40.5696094 12.8799609,39.0285938 12.8799609,37.1344922 C12.8798437,35.2402734 11.3388281,33.6992578 9.44472656,33.6992578 Z M9.44472656,38.8116797 C8.51988281,38.8116797 7.76742187,38.0593359 7.76742187,37.1344922 C7.76742187,36.2096484 8.51976562,35.4571875 9.44472656,35.4571875 C10.3696875,35.4571875 11.1220312,36.2095313 11.1220312,37.1344922 C11.1219141,38.0592188 10.3694531,38.8116797 9.44472656,38.8116797 Z" id="Shape"></path>
                            <path d="M52.8159375,31.2246094 C52.3441406,31.1085938 51.8684766,31.396875 51.7525781,31.8683203 C51.6367969,32.3396484 51.9249609,32.8156641 52.3962891,32.9316797 C55.8380859,33.7775391 58.2419531,36.8466797 58.2419531,40.395 C58.2419531,42.8430469 57.0901172,45.0258984 55.3014844,46.4346094 L55.3014844,43.9552734 C55.3014844,42.3786328 54.0188672,41.0961328 52.4423437,41.0961328 L48.6682031,41.0961328 C47.0915625,41.0961328 45.8090625,42.3788672 45.8090625,43.9552734 L45.8090625,46.4347266 C44.0204297,45.0260156 42.8684766,42.8431641 42.8684766,40.395 C42.8684766,36.8580469 45.2642578,33.7797656 48.7141406,32.9316797 C49.1854687,32.8157813 49.4736328,32.3397656 49.3578516,31.8683203 C49.2420703,31.3969922 48.7660547,31.1085938 48.2944922,31.2246094 C47.4254297,31.4382422 46.6112109,31.7688281 45.8644922,32.1943359 L35.9339062,16.9283203 C37.6740234,15.5477344 38.8243359,13.6374609 39.2813672,11.6130469 C39.388125,11.1394922 39.0909375,10.6691016 38.6175,10.5621094 C38.1435937,10.4552344 37.6735547,10.7525391 37.5664453,11.2259766 C37.1709375,12.9791016 36.1696875,14.4887109 34.8171094,15.5538281 L34.8171094,13.0870313 C34.8171094,11.5103906 33.5344922,10.2278906 31.9579687,10.2278906 L28.1837109,10.2278906 C26.6070703,10.2278906 25.3245703,11.510625 25.3245703,13.0870313 L25.3245703,15.5663672 C23.5359375,14.1576563 22.3841016,11.9748047 22.3841016,9.52675781 C22.3841016,5.28820313 25.8324609,1.83996094 30.0708984,1.83996094 C33.5498437,1.83996094 36.6038672,4.18546875 37.498125,7.54371094 C37.6230469,8.0128125 38.1043359,8.29160156 38.5736719,8.16691406 C39.0427734,8.04199219 39.3217969,7.56058594 39.1967578,7.09136719 C38.0978906,2.964375 34.3454297,0.0819140625 30.0708984,0.0819140625 C24.8629687,0.0819140625 20.6261719,4.31871094 20.6261719,9.52664063 C20.6261719,12.5107031 22.0188281,15.1741406 24.1864453,16.9061719 L14.1588281,32.2160156 C12.7702734,31.4126953 11.1610547,30.9501563 9.44484375,30.9501563 C4.23679688,30.9502734 0,35.1870703 0,40.3948828 C0,45.5991797 4.23960937,49.8396094 9.44472656,49.8396094 C14.1550781,49.8396094 18.0500391,46.3749609 18.76875,41.8964063 L41.23125,41.8964063 C41.9387109,46.3055859 45.7721484,49.8396094 50.5552734,49.8396094 C55.7460938,49.8396094 60,45.6126563 60,40.3948828 C60,36.0351563 57.0458203,32.2641797 52.8159375,31.2246094 Z M27.0821484,13.0870313 C27.0822656,12.4797656 27.5763281,11.9857031 28.1835938,11.9857031 L31.9578516,11.9857031 C32.5651172,11.9857031 33.0591797,12.4797656 33.0591797,13.0870313 L33.0591797,16.5971484 C32.1050391,17.0051953 31.0918359,17.2136719 30.0706641,17.2136719 C29.0112891,17.2136719 28.0013672,16.9982813 27.0821484,16.6089844 L27.0821484,13.0870313 Z M30.0707812,28.3546875 C31.0112109,28.3546875 31.7765625,29.1198047 31.7765625,30.0604688 C31.7765625,31.0011328 31.0114453,31.76625 30.0707812,31.76625 C29.1301172,31.76625 28.365,31.0011328 28.365,30.0604688 C28.365,29.1198047 29.1302344,28.3546875 30.0707812,28.3546875 Z M6.45632812,47.476875 L6.45632812,43.9549219 C6.45632812,43.3476563 6.95039062,42.8535938 7.55765625,42.8535938 L11.3317969,42.8535938 C11.9390625,42.8535938 12.433125,43.3476563 12.433125,43.9549219 L12.433125,47.476875 L12.4332422,47.476875 C10.53,48.283125 8.36226562,48.2842969 6.45632812,47.476875 Z M14.1910547,46.4346094 L14.1910547,43.9552734 C14.1910547,42.3786328 12.9084375,41.0961328 11.3319141,41.0961328 L7.55765625,41.0961328 C5.98101562,41.0961328 4.69851563,42.3788672 4.69851563,43.9552734 L4.69851563,46.4347266 C2.90976563,45.0258984 1.75792969,42.8431641 1.75792969,40.395 C1.75792969,36.1564453 5.20628906,32.7082031 9.44472656,32.7082031 C13.6831641,32.7082031 17.1315234,36.1564453 17.1315234,40.395 C17.1315234,42.8430469 15.9796875,45.0258984 14.1910547,46.4346094 Z M15.5930859,33.2347266 L25.6551563,17.8725 C26.7441797,18.4512891 27.9099609,18.8139844 29.1917578,18.9315234 L29.1917578,26.7103125 C27.7061719,27.1003125 26.6070703,28.4544141 26.6070703,30.0607031 C26.6070703,30.2609766 26.6251172,30.4570312 26.6579297,30.6480469 L17.6288672,35.6903906 C17.0922656,34.7605078 16.4023828,33.9305859 15.5930859,33.2347266 Z M41.1160547,40.1384766 L18.8828906,40.1384766 C18.8561719,39.1444922 18.6759375,38.1885938 18.36375,37.2933984 L27.3909375,32.2521094 C28.0265625,33.0278906 28.9918359,33.5241797 30.0707813,33.5241797 C31.1354297,33.5241797 32.0889844,33.0410156 32.7248438,32.2828125 L41.6320312,37.2885938 C41.3200781,38.1883594 41.1425391,39.1470703 41.1160547,40.1384766 Z M33.4761328,30.6885938 C33.5136328,30.4846875 33.5342578,30.2750391 33.5342578,30.0604688 C33.5342578,28.4541797 32.4350391,27.1000781 30.9495703,26.7100781 L30.9495703,18.9312891 C32.2059375,18.8165625 33.3467578,18.4696875 34.4598047,17.8862109 L44.4237891,33.2034375 C43.5990234,33.9059766 42.9031641,34.7459766 42.3646875,35.6837109 L33.4761328,30.6885938 Z M53.5436719,47.476875 C52.6245703,47.8661719 51.6145312,48.0815625 50.5551562,48.0815625 C49.4957812,48.0815625 48.4859766,47.8661719 47.5667578,47.476875 L47.5667578,43.9550391 L47.566875,43.9550391 C47.566875,43.3477734 48.0609375,42.8537109 48.6682031,42.8537109 L52.4423438,42.8537109 C53.0496094,42.8537109 53.5436719,43.3477734 53.5436719,43.9550391 L53.5436719,47.476875 Z" id="Shape"></path>
                        </g>
                    </g>
                </g>
            </g>
        </g>
    </g>
</svg>