<svg width="57px" height="51px" viewBox="0 0 57 51" version="1.1" xmlns="http://www.w3.org/2000/svg" xmlns:xlink="http://www.w3.org/1999/xlink">
    <defs>
        <linearGradient x1="1.44424438%" y1="0%" x2="100%" y2="100%" id="linearGradient-1">
            <stop stop-color="#17EAD9" offset="0%"></stop>
            <stop stop-color="#6078EA" offset="100%"></stop>
        </linearGradient>
    </defs>
    <g id="Page-1" stroke="none" stroke-width="1" fill="none" fill-rule="evenodd">
        <g id="wireframe" transform="translate(-1081.000000, -4483.000000)" fill="url(#linearGradient-1)" fill-rule="nonzero">
            <g id="Tradeswap" transform="translate(390.000000, 3837.000000)">
                <g id="Low-cost" transform="translate(585.000000, 631.000000)">
                    <g id="icon" transform="translate(92.000000, 0.000000)">
                        <g id="047-loss" transform="translate(14.000000, 15.000000)">
                            <path d="M50.3091391,39.7756395 C50.3091391,38.595145 49.3487888,37.6346852 48.1681848,37.6346852 L34.5825815,37.6346852 C34.3832574,37.6346852 34.1910558,37.6640523 34.0079493,37.7152257 C34.0591227,37.5320096 34.0884899,37.3398081 34.0884899,37.1405935 L34.0884899,34.3567392 C34.0884899,33.8596889 33.9167796,33.4029637 33.6315455,33.0391615 C33.91667,32.6754688 34.0883803,32.218634 34.0883803,31.7215837 L34.0883803,28.9376198 C34.0883803,27.7571254 33.1279204,26.7966655 31.947426,26.7966655 L27.0759824,26.7966655 C26.6212296,26.7966655 26.2524962,27.1653988 26.2524962,27.6201516 C26.2524962,28.0749044 26.6212296,28.4436377 27.0759824,28.4436377 L31.947426,28.4436377 C32.215237,28.4436377 32.4415176,28.6699184 32.4415176,28.9377294 L32.4415176,31.7215837 C32.4415176,31.9893947 32.215237,32.2156753 31.947426,32.2156753 L18.3617131,32.2156753 C18.0939021,32.2156753 17.8676215,31.9893947 17.8676215,31.7215837 L17.8676215,28.9377294 C17.8676215,28.6699184 18.0939021,28.4436377 18.3617131,28.4436377 L23.2331567,28.4436377 C23.6879096,28.4436377 24.0566429,28.0749044 24.0566429,27.6201516 C24.0566429,27.1653988 23.6879096,26.7966655 23.2331567,26.7966655 L18.3617131,26.7966655 C18.162389,26.7966655 17.9701874,26.8261423 17.7870809,26.8772061 C17.8382543,26.69399 17.8676215,26.5017885 17.8676215,26.3025738 L17.8676215,23.5187196 C17.8676215,23.0216693 17.6959112,22.5649441 17.4107867,22.2011418 C17.6960208,21.8373396 17.8676215,21.3806143 17.8676215,20.883564 L17.8676215,18.0997098 C17.8676215,16.9192153 16.9071616,15.9587555 15.7266672,15.9587555 L2.14095432,15.9587555 C0.960459853,15.9589746 0,16.9194345 0,18.0999289 L0,20.8837832 C0,21.3808335 0.171710278,21.8375587 0.456834812,22.201361 C0.171600699,22.5650536 0,23.0217789 0,23.5188292 L0,26.3026834 C0,26.7997337 0.171710278,27.256459 0.456834812,27.6202612 C0.171710278,27.9839539 0,28.4406791 0,28.9377294 L0,31.7215837 C0,32.218634 0.171710278,32.6753592 0.456834812,33.0391615 C0.171600699,33.4028541 0,33.8595794 0,34.3566297 L0,37.1404839 C0,37.6375342 0.171710278,38.0942594 0.456834812,38.4580617 C0.171600699,38.8217544 0,39.2784796 0,39.7755299 L0,42.5593842 C0,43.0564345 0.171710278,43.5131597 0.456834812,43.8769619 C0.171710278,44.2407642 0,44.697599 0,45.1945397 L0,47.978394 C0,49.1588884 0.960459853,50.1193483 2.14095432,50.1193483 L15.7266672,50.1193483 C16.2237175,50.1193483 16.6804427,49.947638 17.0442449,49.6625135 C17.4080472,49.9477476 17.8647724,50.1193483 18.3618227,50.1193483 L31.9475355,50.1193483 C32.4445858,50.1193483 32.9013111,49.947638 33.2650038,49.6625135 C33.628806,49.9477476 34.0855312,50.1193483 34.5825815,50.1193483 L48.1682944,50.1193483 C49.3487888,50.1193483 50.3092487,49.1588884 50.3092487,47.978394 L50.3092487,45.1945397 C50.3092487,44.6974894 50.1375384,44.2407642 49.8524139,43.8769619 C50.137648,43.5132693 50.3092487,43.0564345 50.3092487,42.5593842 L50.3092487,39.7756395 L50.3091391,39.7756395 Z M16.2207588,47.9785036 C16.2207588,48.2463146 15.9945878,48.4725952 15.7266672,48.4725952 L2.14095432,48.4725952 C1.87314327,48.4725952 1.64686265,48.2463146 1.64686265,47.9785036 L1.64686265,45.1946493 C1.64686265,44.9268382 1.87314327,44.7005576 2.14095432,44.7005576 L15.7266672,44.7005576 C15.9944782,44.7005576 16.2207588,44.9268382 16.2207588,45.1946493 L16.2207588,47.9785036 Z M16.2207588,42.5594937 C16.2207588,42.8273048 15.9944782,43.0535854 15.7266672,43.0535854 L2.14095432,43.0535854 C1.87314327,43.0535854 1.64686265,42.8274144 1.64686265,42.5594937 L1.64686265,39.7756395 C1.64686265,39.5078284 1.87314327,39.2815478 2.14095432,39.2815478 L15.7266672,39.2815478 C15.9944782,39.2815478 16.2207588,39.5078284 16.2207588,39.7756395 L16.2207588,42.5594937 Z M16.2207588,37.1405935 C16.2207588,37.4084045 15.9944782,37.6346852 15.7266672,37.6346852 L2.14095432,37.6346852 C1.87314327,37.6346852 1.64686265,37.4084045 1.64686265,37.1405935 L1.64686265,34.3567392 C1.64686265,34.0889282 1.87314327,33.8626476 2.14095432,33.8626476 L15.7266672,33.8626476 C15.9944782,33.8626476 16.2207588,34.0889282 16.2207588,34.3567392 L16.2207588,37.1405935 Z M16.2207588,31.7215837 C16.2207588,31.9893947 15.9944782,32.2156753 15.7266672,32.2156753 L2.14095432,32.2156753 C1.87314327,32.2157849 1.64686265,31.9895043 1.64686265,31.7216932 L1.64686265,28.9377294 C1.64686265,28.6699184 1.87314327,28.4436377 2.14095432,28.4436377 L15.7266672,28.4436377 C15.9944782,28.4436377 16.2207588,28.6699184 16.2207588,28.9377294 L16.2207588,31.7215837 Z M16.2207588,26.3026834 C16.2207588,26.5704945 15.9944782,26.7967751 15.7266672,26.7967751 L2.14095432,26.7967751 C1.87314327,26.7967751 1.64686265,26.5706041 1.64686265,26.3026834 L1.64686265,23.5188292 C1.64686265,23.2510181 1.87314327,23.0247375 2.14095432,23.0247375 L15.7266672,23.0247375 C15.9944782,23.0247375 16.2207588,23.2510181 16.2207588,23.5188292 L16.2207588,26.3026834 Z M16.2207588,20.8836736 C16.2207588,21.1514847 15.9944782,21.3777653 15.7266672,21.3777653 L2.14095432,21.3777653 C1.87314327,21.3777653 1.64686265,21.1514847 1.64686265,20.8836736 L1.64686265,18.0998193 C1.64686265,17.8320083 1.87314327,17.6057277 2.14095432,17.6057277 L15.7266672,17.6057277 C15.9944782,17.6057277 16.2207588,17.8320083 16.2207588,18.0998193 L16.2207588,20.8836736 Z M32.4415176,47.9785036 C32.4416272,48.2463146 32.2153466,48.4725952 31.9475355,48.4725952 L18.3617131,48.4725952 C18.0939021,48.4725952 17.8676215,48.2463146 17.8676215,47.9785036 L17.8676215,45.1946493 C17.8676215,44.9268382 18.0939021,44.7005576 18.3617131,44.7005576 L31.947426,44.7005576 C32.215237,44.7005576 32.4415176,44.9268382 32.4415176,45.1946493 L32.4415176,47.9785036 Z M32.4415176,42.5594937 C32.4415176,42.8273048 32.215237,43.0535854 31.947426,43.0535854 L18.3617131,43.0535854 C18.0939021,43.0535854 17.8676215,42.8274144 17.8676215,42.5594937 L17.8676215,39.7756395 C17.8676215,39.5078284 18.0939021,39.2815478 18.3617131,39.2815478 L31.947426,39.2815478 C32.215237,39.2815478 32.4415176,39.5078284 32.4415176,39.7756395 L32.4415176,42.5594937 Z M32.4415176,37.1405935 C32.4415176,37.4084045 32.215237,37.6346852 31.947426,37.6346852 L18.3617131,37.6346852 C18.0939021,37.6346852 17.8676215,37.4084045 17.8676215,37.1405935 L17.8676215,34.3567392 C17.8676215,34.0889282 18.0939021,33.8626476 18.3617131,33.8626476 L31.947426,33.8626476 C32.2153466,33.8626476 32.4415176,34.0889282 32.4415176,34.3567392 L32.4415176,37.1405935 Z M48.662386,47.9785036 L48.6622765,47.9785036 C48.6622765,48.2463146 48.4359958,48.4725952 48.1681848,48.4725952 L34.5825815,48.4725952 C34.3147705,48.4725952 34.0884899,48.2463146 34.0884899,47.9785036 L34.0884899,45.1946493 C34.0884899,44.9268382 34.3147705,44.7005576 34.5825815,44.7005576 L48.1682944,44.7005576 C48.4361054,44.7005576 48.662386,44.9268382 48.662386,45.1946493 L48.662386,47.9785036 Z M48.662386,42.5594937 C48.662386,42.8273048 48.4361054,43.0535854 48.1682944,43.0535854 L34.5825815,43.0535854 C34.3147705,43.0535854 34.0884899,42.8273048 34.0884899,42.5594937 L34.0884899,39.7756395 C34.0884899,39.5078284 34.3146609,39.2815478 34.5825815,39.2815478 L48.1682944,39.2815478 C48.4361054,39.2815478 48.662386,39.5078284 48.662386,39.7756395 L48.662386,42.5594937 Z" id="Shape"></path>
                            <path d="M34.3720803,20.8704145 L33.7879147,17.3840494 C33.7127435,16.9356522 33.2883441,16.6328854 32.8396181,16.7080566 C32.3911113,16.7832278 32.0884541,17.2077368 32.1636253,17.6563532 L32.4221222,19.198787 L4.24771999,0.208638398 C3.87065868,-0.0455848601 3.3589248,0.0541320214 3.10470154,0.431193328 C2.85047828,0.808364214 2.95019516,1.32020768 3.32736605,1.57432136 L31.4447871,20.5261174 L29.9375281,20.7786969 C29.4890213,20.8538681 29.1863641,21.2783771 29.2614258,21.7268839 C29.3288168,22.1293676 29.6776068,22.4143825 30.072639,22.4143825 C30.1177856,22.4143825 30.1636992,22.4106568 30.2096128,22.4029863 L33.6959779,21.8188207 C33.9114102,21.7826596 34.1036118,21.6625611 34.2305042,21.4847144 C34.3571776,21.3067581 34.4081318,21.0858468 34.3720803,20.8704145 Z" id="Shape"></path>
                            <path d="M55.2695609,26.5754255 C54.8322311,26.4512725 54.3767112,26.7050575 54.2524487,27.1424968 C53.2620737,30.6287524 50.0377119,33.0637071 46.4113048,33.0637071 C41.9158267,33.0637071 38.2582992,29.4063988 38.2582992,24.9108111 C38.2582992,20.415333 41.9157172,16.757915 46.4113048,16.757915 C50.3947203,16.757915 53.8579643,19.7212597 54.4671139,23.6508719 C54.5368061,24.1002553 54.9579182,24.4079531 55.4070825,24.33848 C55.8564659,24.2687878 56.1643829,23.8480045 56.0946907,23.3985114 C55.3630317,18.6787252 51.2804473,15.1109428 46.4114144,15.1109428 C41.0077456,15.1109428 36.6115461,19.5071423 36.6115461,24.9107015 C36.6115461,30.3143703 41.0078552,34.7104602 46.4114144,34.7104602 C50.7703571,34.7104602 54.646166,31.7833862 55.8366321,27.5924281 C55.9607851,27.1549888 55.7070002,26.6996881 55.2695609,26.5754255 Z" id="Shape"></path>
                            <path d="M46.3579399,18.5404365 C42.8452757,18.5404365 39.9875652,21.398147 39.9875652,24.9107015 C39.9875652,28.4232561 42.8452757,31.2809665 46.3579399,31.2809665 C49.870604,31.2809665 52.7282049,28.4233656 52.7282049,24.9107015 C52.7282049,21.398147 49.870604,18.5404365 46.3579399,18.5404365 Z M46.3580494,29.6341039 C43.7534664,29.6341039 41.6346471,27.515175 41.6346471,24.9108111 C41.6346471,22.3063376 43.753576,20.1875183 46.3580494,20.1875183 C48.9625229,20.1875183 51.0813423,22.3064472 51.0813423,24.9108111 C51.0813423,27.515175 48.9623037,29.6341039 46.3580494,29.6341039 Z" id="Shape"></path>
                            <path d="M46.7614097,24.310647 L46.7614097,22.67792 C47.1080081,22.7057531 47.2872793,22.7880469 47.6612724,22.9747695 C47.8489812,23.069117 48.0821653,23.0330655 48.2317406,22.779171 C48.3527158,22.5736008 48.4336947,22.2456309 48.1853887,22.0390745 C47.8319964,21.7457315 47.2112315,21.652699 46.7611905,21.652699 L46.7611905,21.4092144 C46.7611905,21.2704874 46.5896994,21.1749346 46.4458222,21.1749346 C46.2866039,21.1749346 46.1303443,21.271912 46.1303443,21.4068037 L46.1303443,21.6666155 C45.0573468,21.808082 44.3305094,22.3850154 44.3305094,23.475655 C44.3305094,24.5928129 45.1381065,24.9616557 46.1303443,25.3403607 L46.1303443,27.1865476 C45.6392113,27.1273749 45.4047122,26.934735 44.9429464,26.5881367 C44.712173,26.4152211 44.4864403,26.4806397 44.3167024,26.7185357 C44.0995169,27.0243707 44.1297607,27.2911955 44.3121001,27.5372003 C44.662205,28.0094858 45.4238885,28.285844 46.1304539,28.285844 L46.1304539,28.5481761 C46.1304539,28.6892043 46.2932883,28.7822368 46.4459318,28.7822368 C46.589809,28.7822368 46.7613001,28.6875606 46.7613001,28.5503677 L46.7613001,28.2628324 C47.6983101,28.117969 48.5146736,27.5250371 48.5146736,26.2961087 C48.5147831,25.1697462 47.8067933,24.6908861 46.7614097,24.310647 Z M46.204858,24.1066109 C45.6473201,23.8838368 45.4626795,23.7036889 45.4626795,23.3552277 C45.4626795,22.9514292 45.8043468,22.7690897 46.204858,22.7057531 L46.204858,24.1066109 Z M46.6873343,27.1773429 L46.6873343,25.5631348 C47.2644869,25.8159336 47.3830513,26.0910864 47.3830513,26.416536 C47.3830513,26.8446611 47.1061452,27.0886935 46.6873343,27.1773429 Z" id="Shape"></path>
                        </g>
                    </g>
                </g>
            </g>
        </g>
    </g>
</svg>