<svg width="52px" height="49px" viewBox="0 0 52 49" version="1.1" xmlns="http://www.w3.org/2000/svg" xmlns:xlink="http://www.w3.org/1999/xlink">
    <defs>
        <linearGradient x1="1.44424438%" y1="0%" x2="100%" y2="100%" id="linearGradient-1">
            <stop stop-color="#17EAD9" offset="0%"></stop>
            <stop stop-color="#6078EA" offset="100%"></stop>
        </linearGradient>
    </defs>
    <g id="Page-1" stroke="none" stroke-width="1" fill="none" fill-rule="evenodd">
        <g id="wireframe" transform="translate(-1373.000000, -4213.000000)" fill="url(#linearGradient-1)" fill-rule="nonzero">
            <g id="Tradeswap" transform="translate(390.000000, 3837.000000)">
                <g id="Experienced-Team" transform="translate(877.000000, 361.000000)">
                    <g id="icon" transform="translate(92.000000, 0.000000)">
                        <g id="001-employee-3" transform="translate(14.000000, 15.000000)">
                            <path d="M51.1385029,41.1438596 C50.7185497,41.1438596 50.378269,41.4842417 50.378269,41.9040936 L50.378269,46.9837739 C50.378269,47.0543236 50.3208967,47.1117973 50.2502456,47.1117973 L47.3615595,47.1117973 L47.3615595,36.004577 C47.3615595,35.5847251 47.0212788,35.2443431 46.6013255,35.2443431 C46.1813723,35.2443431 45.8410916,35.5847251 45.8410916,36.004577 L45.8410916,47.1118986 L40.2589474,47.1118986 L41.7697856,45.4498246 C42.0031267,45.1930682 42.1131072,44.82846 42.0641481,44.4743938 C42.0630331,44.4667914 42.0619181,44.4592904 42.0606004,44.4516881 L40.3622378,34.4170058 L40.6747446,33.9465731 L40.7561404,34.0043509 C41.0347914,34.2023158 41.3901754,34.2744873 41.7340039,34.1886316 C42.0716491,34.1041949 42.3545575,33.877037 42.5100507,33.5656452 L42.5100507,33.5655439 L44.2382144,30.1018168 L48.1858558,31.6306979 C48.341653,31.6984094 50.3778635,32.632078 50.3778635,35.0613801 L50.3778635,38.3561326 C50.3779649,38.7760858 50.7182456,39.1164678 51.1381988,39.1164678 C51.558152,39.1164678 51.8984327,38.7760858 51.8984327,38.3562339 L51.8984327,35.0614815 C51.8984327,31.5532554 48.8894269,30.275961 48.7614035,30.2232515 C48.756538,30.2212242 48.7517739,30.2192982 48.7469084,30.2174737 L42.0247173,27.6140273 L42.0247173,26.2293879 C43.0740429,25.3852242 43.810963,24.1685458 44.0322417,22.781575 C44.5555867,22.7158908 45.0411228,22.5063704 45.4440468,22.1598051 C46.0218246,21.6629162 46.3533879,20.939883 46.3533879,20.1763041 C46.3533879,19.5667992 46.1418402,18.9835478 45.7630409,18.5203119 L45.7630409,16.4688967 C45.7630409,12.4542534 42.4968733,9.18818713 38.4824327,9.18818713 C36.6800702,9.18818713 35.0298558,9.84786745 33.7570214,10.9367251 C33.7406004,10.3541832 33.5320936,9.79911111 33.1687018,9.35472904 L33.1687018,7.3034152 C33.1687018,3.28877193 29.9025341,0.022705653 25.8880936,0.022705653 C21.8734503,0.022705653 18.607384,3.28887329 18.607384,7.3034152 L18.607384,9.40824951 C18.2419649,9.84492788 18.0375127,10.3714152 18.0194698,10.9302378 C17.2073372,10.2361949 16.2353528,9.71366082 15.1520702,9.42842105 C14.7453957,9.32138012 14.3301053,9.56394542 14.2231657,9.9700117 C14.1162261,10.376078 14.3586901,10.7919766 14.7647563,10.8989162 C17.2900507,11.5638674 19.0537934,13.8544016 19.0537934,16.4687953 L19.0537934,17.6058012 C19.0209513,17.5990097 18.9155322,17.5808655 18.9114776,17.5802573 C18.9011384,17.3656686 18.846807,17.2346043 18.7298324,17.0663392 C18.5352125,16.7866745 18.1857076,16.4382846 17.061575,15.2300195 C16.6609825,14.7997271 16.0130604,14.7207641 15.5212398,15.0422924 C13.5958207,16.3000234 11.2566316,16.9410526 9.08580897,16.8136374 C8.37869006,16.7721793 7.93704483,17.0828616 7.74881092,17.5920156 C7.73198441,17.5947524 7.54395322,17.6326628 7.53351267,17.6351969 L7.53351267,16.4687953 C7.53351267,13.947961 9.2179883,11.6801326 11.6297544,10.953653 C12.0317661,10.8326238 12.2595322,10.4085146 12.1385029,10.0064016 C12.0173723,9.6042885 11.592655,9.37652242 11.1911501,9.49775439 C9.72440546,9.93950097 8.40595712,10.8592827 7.47897856,12.0874152 C6.51976608,13.3579181 6.01284211,14.8730136 6.01284211,16.4688967 L6.01284211,18.5738324 C5.62988694,19.0313918 5.42279922,19.5874776 5.42279922,20.1763041 C5.42279922,21.4778246 6.3817076,22.6129045 7.74789864,22.7821832 C7.9717115,24.1367173 8.70660429,25.4357037 9.86641715,26.3188928 L9.86641715,27.6144327 L3.1517271,30.2176764 C3.14696296,30.219501 3.14219883,30.2214269 3.1374347,30.2233528 C3.00910721,30.275961 0,31.553154 0,35.0613801 L0,46.9837739 C0,47.8929123 0.739555556,48.6323665 1.64869396,48.6323665 L25.0609591,48.6323665 C25.3881637,48.6323665 25.6925614,48.5353606 25.9494191,48.3703392 C26.2060741,48.5353606 26.5105731,48.6323665 26.8378791,48.6323665 L50.2502456,48.6323665 C51.1592827,48.6323665 51.8988382,47.8929123 51.8988382,46.9837739 L51.8988382,41.9040936 C51.8987368,41.4842417 51.5584561,41.1438596 51.1385029,41.1438596 Z M7.67349708,21.2113372 C7.22779727,21.0495595 6.94306433,20.6373099 6.94306433,20.1761014 C6.94306433,19.7287797 7.2674308,19.361232 7.67349708,19.1867836 L7.67349708,21.2113372 Z M42.8142456,29.5502924 L41.3219571,32.541154 C41.3217544,32.5409513 39.6643431,31.3638051 39.6408265,31.3470799 C40.3558519,30.4643977 40.0199298,30.8790799 41.5067446,29.0439766 L42.8142456,29.5502924 Z M38.5418324,30.2880234 L36.5756647,27.8610526 L36.5756647,27.1317349 C37.214768,27.3527096 37.9032359,27.4546823 38.5512593,27.454885 C38.5513606,27.454885 38.5515634,27.454885 38.5516647,27.454885 L38.5517661,27.454885 C39.2217856,27.4547836 39.900117,27.3275712 40.5042495,27.1002105 L40.5042495,27.8657154 L38.5418324,30.2880234 Z M39.4344483,33.0657154 L39.1547836,33.4866823 L37.9291852,33.4866823 L37.6495205,33.0657154 L38.5420351,32.431883 L39.4344483,33.0657154 Z M25.9473918,21.1224405 L23.9812242,18.6954698 L23.9812242,17.966152 C24.6177934,18.1862144 25.3055517,18.2890994 25.9568187,18.2893021 C25.9569201,18.2893021 25.9571228,18.2893021 25.9572242,18.2893021 L25.9573255,18.2893021 C26.6261287,18.2893021 27.3043587,18.1624951 27.909809,17.934729 L27.909809,18.7001326 L25.9473918,21.1224405 Z M26.8399064,23.9003353 L26.5602417,24.3213021 L25.3346433,24.3213021 L25.0549786,23.9003353 L25.9474932,23.2665029 L26.8399064,23.9003353 Z M19.960499,13.5437193 C20.0847719,13.577575 20.2124912,13.6005848 20.3421365,13.6166004 C20.5659493,14.9711345 21.3008421,16.2701209 22.460655,17.1533099 L22.460655,18.4488499 L20.9096764,19.0500429 C20.8197661,18.8612008 20.7073528,18.683306 20.5739571,18.5202105 L20.5739571,16.4688967 C20.5739571,15.4372086 20.3566316,14.4454581 19.960499,13.5437193 Z M29.9872749,12.7386823 C29.9872749,14.9639376 28.172039,16.7685302 25.9573255,16.7685302 C23.4585887,16.7685302 21.7887096,14.831961 21.7887096,12.7386823 L21.7887096,9.17754386 C24.1893255,9.27363743 26.6831969,8.56215984 28.7221442,7.29307602 C29.4076725,8.02817154 29.8155634,8.45522027 29.9873762,8.65348928 C29.9872749,10.546269 29.9872749,11.2771072 29.9872749,12.7386823 Z M31.4379025,13.6160936 C31.5668382,13.5998752 31.6939493,13.5767641 31.8175127,13.5430097 C31.4225965,14.4390721 31.2016218,15.4283899 31.2016218,16.4688967 L31.2016218,18.573731 C31.0847485,18.7133099 30.9841949,18.8620117 30.9009747,19.0180117 L29.4303782,18.4485458 L29.4303782,17.0639064 C30.4796023,16.2196413 31.2166238,15.002963 31.4379025,13.6160936 Z M22.9798441,19.8796101 L24.8461676,22.1832203 L23.5734347,23.0871891 C23.5727251,23.0876959 23.5722183,23.0882027 23.5715088,23.0887096 L23.1675712,23.3756725 L21.6751813,20.3849123 L22.9798441,19.8796101 Z M27.6971462,21.3781832 L28.9122027,19.8783938 L30.2197037,20.3847096 L28.7275166,23.3756725 L28.3226667,23.0882027 C28.3222612,23.0878986 28.3218558,23.0874932 28.3214503,23.0871891 L27.046386,22.1814971 L27.6971462,21.3781832 Z M28.0803041,24.7810916 L28.1616998,24.8388694 C28.4459259,25.0407875 28.8026277,25.1074854 29.1395634,25.0231501 C29.4772086,24.9387135 29.760117,24.7115556 29.9156101,24.4001637 L29.9156101,24.4000624 L31.1986823,21.8285458 C31.6395166,22.3718596 32.2770994,22.702308 32.9337388,22.7843119 C33.1656608,24.2378791 33.9513372,25.4783782 35.0551969,26.3188928 L35.0551969,27.6143314 L28.5917895,30.1201637 L27.7676959,25.2516257 L28.0803041,24.7810916 Z M35.5742846,29.0450916 L37.4406082,31.3487018 C36.6246238,31.9284055 35.8042807,32.5111501 35.7620117,32.541154 L34.2696218,29.5503938 L35.5742846,29.0450916 Z M42.581614,21.9042651 C42.5818168,24.0751891 40.8187836,25.9341131 38.5517661,25.9341131 C35.9677817,25.9341131 34.3831501,23.910269 34.3831501,21.9042651 L34.3831501,18.3431267 C36.7666355,18.438308 39.2637505,17.7362573 41.3164834,16.4586589 C42.0020117,17.1937544 42.4099025,17.6208031 42.5817154,17.8190721 C42.581614,19.7117505 42.581614,20.4426901 42.581614,21.9042651 Z M44.8329201,20.1762027 C44.8329201,20.6382222 44.5472749,21.0496608 44.1024873,21.2113372 L44.1024873,19.1431969 C44.5622768,19.3106511 44.8329201,19.730807 44.8329201,20.1762027 Z M32.722191,16.4687953 C32.722191,13.2926394 35.3062768,10.708655 38.4823314,10.708655 C41.6584873,10.708655 44.2423704,13.2927407 44.2423704,16.4687953 L44.2423704,17.6058012 C44.2078051,17.5986043 44.1127251,17.5821832 44.1000546,17.5802573 C44.0897154,17.3654659 44.0350799,17.2340975 43.9184094,17.0663392 C43.7186199,16.7793762 43.3729669,16.4369669 42.250152,15.2300195 C41.8580741,14.809154 41.2115712,14.7143782 40.7098168,15.0422924 C38.8366004,16.2659649 36.4699415,16.9571696 34.2179259,16.8109006 C33.5853099,16.7694425 33.1270409,17.0792125 32.9373879,17.592117 C32.92046,17.5948538 32.7327329,17.6327641 32.7220897,17.6352982 L32.7220897,16.4687953 L32.722191,16.4687953 Z M32.8625809,19.186885 L32.8625809,21.2103236 C32.4155634,21.049154 32.1321481,20.6357895 32.1321481,20.1761014 C32.1320468,19.7287797 32.4562105,19.3614347 32.8625809,19.186885 Z M32.2382768,11.0107212 C32.2382768,11.3308304 32.0997115,11.6336062 31.8581598,11.8413021 C31.7544639,11.9305029 31.6362729,11.9990253 31.5078441,12.0457544 L31.5078441,9.97761404 C31.9624639,10.1426355 32.2382768,10.5605614 32.2382768,11.0107212 Z M25.8877895,1.54317349 C29.0639454,1.54317349 31.6479298,4.12715789 31.6479298,7.30331384 L31.6479298,8.44031969 C31.6135673,8.43322417 31.5182846,8.41670175 31.505614,8.41477583 C31.4943626,8.18194152 31.4272593,8.03881481 31.2903158,7.85362183 C31.0867758,7.57811306 30.7115244,7.19931384 29.6557115,6.06443665 C29.2570448,5.63637427 28.6095283,5.55376218 28.1153762,5.87670955 C26.1371462,7.16910721 23.7373411,7.79807407 21.5621598,7.6422768 C21.0299961,7.60203509 20.5289513,7.92356335 20.3430487,8.42643275 C20.3261209,8.42916959 20.1382924,8.46707992 20.1276491,8.46961404 L20.1277505,7.3034152 L20.1276491,7.3034152 C20.1276491,4.12715789 22.7117349,1.54317349 25.8877895,1.54317349 Z M20.2679376,10.0213021 L20.2679376,12.0458558 C19.8222378,11.884078 19.5375049,11.4718285 19.5375049,11.0106199 C19.5375049,10.5658324 19.8593372,10.1969669 20.2679376,10.0213021 Z M18.9133021,19.1431969 C19.3386277,19.2979805 19.6118051,19.669076 19.6388694,20.1101131 C19.6729279,20.6005146 19.3715712,21.0439844 18.9133021,21.210425 L18.9133021,19.1431969 Z M18.8428538,22.7841092 C19.5599064,22.6944016 20.2180663,22.3165146 20.6496764,21.7351891 L21.9793762,24.4000624 C21.9793762,24.4000624 21.9793762,24.4000624 21.9794776,24.4001637 C22.1348694,24.7116569 22.4177778,24.9387135 22.755423,25.0231501 C23.0892164,25.1065731 23.4463236,25.0427135 23.7332865,24.8388694 L23.8146823,24.7810916 L24.1271891,25.2515244 L23.3033996,30.1187446 L16.8359376,27.6139259 L16.8359376,26.2298947 L16.8358363,26.2298947 C17.9126316,25.3617076 18.6267446,24.1349942 18.8428538,22.7841092 Z M13.3527485,30.2880234 L11.3865809,27.8610526 L11.3865809,27.1317349 C12.0231501,27.3517973 12.7110097,27.4546823 13.3622768,27.4547836 C13.3623782,27.4547836 13.3625809,27.4547836 13.3626823,27.4547836 C14.0424327,27.4547836 14.7195478,27.3242261 15.3151657,27.1002105 L15.3151657,27.8657154 L13.3527485,30.2880234 Z M14.2453645,33.0657154 L13.9656998,33.4866823 L12.7401014,33.4866823 L12.4604366,33.0657154 L13.3529513,32.431883 L14.2453645,33.0657154 Z M16.3175595,29.0439766 L17.6251618,29.5503938 L16.1328733,32.541154 L15.7280234,32.2536842 C15.7276179,32.2533801 15.7272125,32.2529747 15.726807,32.2526706 L14.4517427,31.3470799 L16.3175595,29.0439766 Z M9.19406628,21.9042651 L9.19406628,18.3431267 C11.6074542,18.4395244 14.1029474,17.7186199 16.1273996,16.4586589 C16.8064405,17.1868616 17.220616,17.6206004 17.3926316,17.8190721 C17.3926316,19.7118519 17.3926316,20.4427914 17.3926316,21.9042651 C17.3926316,24.1153294 15.5898635,25.9341131 13.3626823,25.9341131 C10.8830019,25.9341131 9.19406628,24.0196413 9.19406628,21.9042651 Z M10.3853021,29.0450916 L12.2516257,31.3487018 L10.9788928,32.2526706 C10.9781832,32.2531774 10.9776764,32.2536842 10.9769669,32.254191 L10.5730292,32.541154 L9.08063938,29.5503938 L10.3853021,29.0450916 Z M6.05784795,47.112 L6.05784795,36.004577 C6.05784795,35.5847251 5.71756725,35.2443431 5.29761404,35.2443431 C4.87766082,35.2443431 4.53738012,35.5847251 4.53738012,36.004577 L4.53738012,47.1118986 L1.64869396,47.1118986 C1.57794152,47.1118986 1.5205692,47.054425 1.5205692,46.9838752 L1.5205692,35.0613801 C1.5205692,32.6196101 3.57796491,31.6888811 3.71115789,31.631306 L7.65636647,30.1018168 L9.38473294,33.5655439 C9.38473294,33.5655439 9.38473294,33.5655439 9.38483431,33.5656452 C9.54022612,33.8771384 9.8231345,34.1041949 10.1608811,34.1886316 C10.4946745,34.2720546 10.8517817,34.2081949 11.1387446,34.0043509 L11.2201404,33.9465731 L11.5326472,34.4170058 L9.8342846,44.4516881 C9.83296686,44.4591891 9.83185185,44.4667914 9.83073684,44.4743938 C9.78187914,44.8282573 9.89185965,45.1928655 10.1253021,45.4500273 L11.6359376,47.112 L6.05784795,47.1118986 L6.05784795,47.112 Z M11.3602261,44.5477817 L12.9748616,35.0072515 L13.7309396,35.0072515 L15.3456764,44.5477817 L13.3529513,46.7399922 L11.3602261,44.5477817 Z M25.1889825,46.9837739 C25.1889825,47.054425 25.1316101,47.1118986 25.0609591,47.1118986 L22.1724756,47.1118986 L22.1724756,36.004577 C22.1724756,35.5847251 21.8321949,35.2443431 21.4122417,35.2443431 C20.9922885,35.2443431 20.6520078,35.5847251 20.6520078,36.004577 L20.6520078,47.1118986 L15.0698635,47.1118986 L16.5807018,45.4498246 C16.8140429,45.1930682 16.9240234,44.82846 16.8750643,44.4743938 C16.8739493,44.4667914 16.8728343,44.4592904 16.8715166,44.4516881 L15.173154,34.4170058 L15.4856608,33.9465731 L15.5670565,34.0043509 C15.7704951,34.1488967 16.0113372,34.2243119 16.2557271,34.2243119 C16.7016296,34.2243119 17.1169201,33.9744483 17.3210682,33.5656452 L17.3210682,33.5655439 L19.049232,30.1019181 L22.9968733,31.6307992 C24.1475634,32.1313372 25.1888811,33.4222144 25.1888811,35.0613801 L25.1888811,46.9837739 L25.1889825,46.9837739 Z M25.9493177,32.2987914 C25.6343782,31.7913606 25.2151345,31.3218402 24.709731,30.9211462 L25.5694035,25.8418713 L26.3254815,25.8418713 L27.1855595,30.9237817 C26.6666745,31.3358285 26.2529045,31.8096062 25.9493177,32.2987914 Z M31.2468304,47.112 L31.2468304,36.004577 C31.2468304,35.5847251 30.9065497,35.2443431 30.4865965,35.2443431 C30.0666433,35.2443431 29.7263626,35.5847251 29.7263626,36.004577 L29.7263626,47.1118986 L26.8377778,47.1118986 C26.7671267,47.1118986 26.709653,47.054425 26.709653,46.9838752 L26.709653,35.0613801 C26.709653,34.157614 26.9930682,33.3252086 27.5967953,32.6258947 C27.9993138,32.1641793 28.5332008,31.790347 28.9003431,31.631306 L32.8455517,30.1017154 L34.5739181,33.5655439 C34.5739181,33.5655439 34.5739181,33.5655439 34.5740195,33.5656452 C34.7294113,33.8771384 35.0123197,34.1041949 35.3499649,34.1886316 C35.6837583,34.2720546 36.0408655,34.2081949 36.3278285,34.0043509 L36.4092242,33.9465731 L36.721731,34.4170058 L35.0233684,44.4516881 C35.0220507,44.4591891 35.0209357,44.4667914 35.0198207,44.4743938 C34.970963,44.8282573 35.0809435,45.1928655 35.314386,45.4500273 L36.8250214,47.112 L31.2468304,47.1118986 L31.2468304,47.112 Z M36.5492086,44.547883 L38.1639454,35.0073528 L38.9200234,35.0073528 L40.5347602,44.547883 L38.5419337,46.7400936 L36.5492086,44.547883 Z" id="Shape"></path>
                        </g>
                    </g>
                </g>
            </g>
        </g>
    </g>
</svg>