<svg width="49px" height="56px" viewBox="0 0 49 56" version="1.1" xmlns="http://www.w3.org/2000/svg" xmlns:xlink="http://www.w3.org/1999/xlink">
    <defs>
        <linearGradient x1="1.44424438%" y1="0%" x2="100%" y2="100%" id="linearGradient-1">
            <stop stop-color="#17EAD9" offset="0%"></stop>
            <stop stop-color="#6078EA" offset="100%"></stop>
        </linearGradient>
    </defs>
    <g id="Page-1" stroke="none" stroke-width="1" fill="none" fill-rule="evenodd">
        <g id="wireframe" transform="translate(-498.000000, -4210.000000)" fill="url(#linearGradient-1)" fill-rule="nonzero">
            <g id="Tradeswap" transform="translate(390.000000, 3837.000000)">
                <g id="Instant-Settlement" transform="translate(0.000000, 361.000000)">
                    <g id="icon" transform="translate(92.000000, 0.000000)">
                        <g id="020-hourglass" transform="translate(16.000000, 12.000000)">
                            <path d="M44.2062416,26.4144447 C44.6543034,26.4144447 45.0175558,26.0513004 45.0175558,25.6031305 L45.0175558,7.29382325 L46.0765914,7.29382325 C47.2397997,7.29382325 48.1861166,6.34739814 48.1861166,5.18429803 L48.1861166,2.10952522 C48.1861166,0.946425112 47.2397997,0 46.0765914,0 L26.0162517,0 C25.5681899,0 25.2049374,0.363144257 25.2049374,0.811314246 C25.2049374,1.25948424 25.5681899,1.62262849 26.0162517,1.62262849 L46.0765914,1.62262849 C46.3404308,1.62262849 46.5633799,1.84557765 46.5633799,2.10941704 L46.5633799,5.18418986 C46.5633799,5.44802925 46.3404308,5.67097841 46.0765914,5.67097841 C43.9890257,5.67097841 4.27952039,5.67097841 2.16945429,5.67097841 C1.9056149,5.67097841 1.68266575,5.44802925 1.68266575,5.18418986 L1.68266575,2.10952522 C1.68266575,1.84568582 1.9056149,1.62273667 2.16945429,1.62273667 L22.229794,1.62273667 C22.6778558,1.62273667 23.0411082,1.25959241 23.0411082,0.811422422 C23.0411082,0.363252432 22.6778558,0.000108175233 22.229794,0.000108175233 L2.16956247,0.000108175233 C1.00635419,0 0.059929079,0.946425112 0.059929079,2.10952522 L0.059929079,5.18429803 C0.059929079,6.34750631 1.00635419,7.29382325 2.16945429,7.29382325 L3.22848982,7.29382325 L3.22848982,48.0917878 L2.16945429,48.0917878 C1.00624602,48.0917878 0.059929079,49.0381047 0.059929079,50.201313 L0.059929079,53.276194 C0.059929079,54.4394023 1.00635419,55.3857192 2.16945429,55.3857192 L46.0765914,55.3857192 C47.2397997,55.3857192 48.1861166,54.4392941 48.1861166,53.276194 L48.1861166,50.201313 C48.1861166,49.0381047 47.2396915,48.0917878 46.0765914,48.0917878 L45.0175558,48.0917878 L45.0175558,29.3893718 C45.0175558,28.9412018 44.6543034,28.5780575 44.2062416,28.5780575 C43.7581798,28.5780575 43.3949274,28.9412018 43.3949274,29.3893718 L43.3949274,48.0916796 L41.9928682,48.0916796 L41.9928682,7.29382325 L43.3949274,7.29382325 L43.3949274,25.6030223 C43.3949274,26.0513004 43.7581798,26.4144447 44.2062416,26.4144447 Z M37.2749136,18.758559 L37.2749136,7.29382325 L40.3701315,7.29382325 L40.3701315,48.0917878 L37.2749136,48.0917878 L37.2749136,36.6269439 C37.2749136,35.8869171 36.9189089,35.1833454 36.3225388,34.7450194 L27.5090699,28.2670537 C27.1212617,27.9821202 27.1210453,27.403599 27.5090699,27.1183409 L36.322647,20.6402671 C36.919017,20.2020493 37.2749136,19.4985857 37.2749136,18.758559 Z M35.6521769,36.6269439 L35.6521769,48.0916796 L12.5938688,48.0916796 L12.5938688,36.6269439 C12.5938688,36.4050765 12.6993396,36.1888342 12.8846438,36.0525334 L16.0159923,33.7511053 L32.2301616,33.7511053 L35.36151,36.0525334 C35.543569,36.186238 35.6521769,36.401074 35.6521769,36.6269439 Z M12.5938688,7.29382325 L35.6521769,7.29382325 L35.6521769,18.7586671 C35.6521769,18.984537 35.543569,19.1992648 35.36151,19.3330776 L26.5480411,25.8110433 C25.2770903,26.7452446 25.276874,28.6404746 26.5480411,29.574676 L30.0224132,32.1282605 L18.2237406,32.1282605 L21.6982209,29.574676 C22.9692799,28.6405828 22.9692799,26.7450282 21.6982209,25.8110433 L12.884752,19.3330776 C12.7026931,19.1992648 12.593977,18.984537 12.593977,18.7586671 L12.5938688,7.29382325 Z M7.87613053,48.0920041 L7.87613053,7.29382325 L10.9713485,7.29382325 L10.9713485,18.7586671 C10.9713485,19.4985857 11.3273532,20.2021574 11.9237232,20.6405917 L20.7373003,27.1186655 C21.1251085,27.4037072 21.1252167,27.9823365 20.7373003,28.2673783 L11.923615,34.7453439 C11.3273532,35.1837781 10.9712403,35.8873498 10.9712403,36.6272684 L10.9712403,48.0920041 L7.87613053,48.0920041 Z M4.85133467,7.29382325 L6.25339386,7.29382325 L6.25339386,48.0917878 L4.85133467,48.0917878 L4.85133467,7.29382325 Z M46.0765914,49.7145245 C46.3405389,49.7145245 46.5633799,49.9373654 46.5633799,50.201313 L46.5633799,53.276194 C46.5633799,53.5400334 46.3404308,53.7629825 46.0765914,53.7629825 L2.16956247,53.7629825 C1.90572308,53.7629825 1.68277392,53.5400334 1.68277392,53.276194 L1.68277392,50.201313 C1.68277392,49.9374736 1.90572308,49.7145245 2.16956247,49.7145245 L4.03785692,49.7145245 C4.03861414,49.7145245 4.03926319,49.7146326 4.03991225,49.7146326 C4.82731977,49.7146326 45.2328246,49.7145245 46.0765914,49.7145245 Z" id="Shape"></path>
                        </g>
                    </g>
                </g>
            </g>
        </g>
    </g>
</svg>